<svg xmlns="http://www.w3.org/2000/svg" width="250" height="104" fill="none" viewBox="0 0 250 104">
  <g clip-path="url(#a)">
    <mask id="b" width="250" height="104" x="0" y="0" maskUnits="userSpaceOnUse" style="mask-type:luminance">
      <path fill="#fff" d="M0 0h250v103.306H0V0Z"/>
    </mask>
    <g mask="url(#b)">
      <path fill="#F0BD40" d="M213.459 45.311c-.177.37-.325.691-.483 1.006-.678 1.353-1.369 2.7-2.037 4.058a20.14 20.14 0 0 1-2.11 3.429c-.157.203-.305.417-.39.694.233.054.443.106.654.152.637.136 1.264.322 1.916.382.294.027.589.047.881.088.725.103 1.429.288 2.119.533.46.165.588.12.889-.241.03-.036.055-.075.084-.111.401-.518.834-.997 1.47-1.244.195-.075.267-.252.291-.443.011-.09-.005-.184-.009-.276a.548.548 0 0 1 .245-.518c.114-.077.224-.165.348-.221a1.03 1.03 0 0 1 .751-.058c.168-.244.171-.244.158-.437-.027-.37-.074-.738-.081-1.107a1.088 1.088 0 0 0-.273-.717 3.014 3.014 0 0 1-.56-1.058 8.628 8.628 0 0 1-.131-.443c-.137-.515-.407-.929-.897-1.181-.124-.064-.241-.142-.364-.207a3.079 3.079 0 0 1-.809-.618c-.288-.303-.583-.6-.883-.89-.221-.214-.453-.416-.779-.572Zm-.869 16.64c-.328.08-.678.088-.993.278.005.063-.003.126.015.18.131.395.269.788.403 1.183.201.588.499 1.129.818 1.66.239.397.478.794.72 1.19.343.558.558 1.168.745 1.79.168.562.337 1.124.529 1.677.195.557.296 1.134.395 1.71.088.516.142 1.038.22 1.556.052.35.111.699.222 1.039.196.602.349 1.215.424 1.845.046.386.191.745.34 1.101.048.114.105.225.144.342.128.383.234.764.089 1.173-.066.187-.084.39-.118.586-.03.17-.134.274-.287.335-.086.035-.179.054-.263.093-.379.175-.741.109-1.054-.127a2.636 2.636 0 0 0-.915-.432c-.221-.06-.424-.19-.63-.298-.165-.086-.324-.183-.484-.279-.513-.305-1.058-.519-1.656-.59-.589-.069-1.098-.32-1.565-.67-.111-.084-.227-.164-.338-.247a.99.99 0 0 0-.65-.21c-.378.011-.74-.078-1.092-.208-.671-.246-1.369-.413-2.021-.708-.142-.064-.292-.11-.431-.177-.419-.204-.845-.383-1.308-.473-.478-.092-.823-.424-1.177-.72-.109-.092-.166-.26-.214-.404a1.742 1.742 0 0 1-.098-.498c-.016-.439-.151-.849-.286-1.259-.148-.455-.321-.902-.456-1.36-.149-.503-.266-1.014-.4-1.52-.09-.343-.177-.687-.282-1.025-.17-.545-.359-1.084-.529-1.629-.059-.19-.085-.39-.128-.586-.027-.119-.06-.236-.093-.362-.065.017-.121.016-.148.043-.348.35-.774.57-1.242.705-.327.094-.58.275-.798.529-.201.235-.42.455-.633.68-.193.203-.397.392-.661.505-.15.064-.247.182-.33.316-.098.157-.185.323-.296.471-.194.26-.395.515-.607.76-.203.234-.432.445-.634.679-.241.278-.569.379-.905.429a.885.885 0 0 1-.732-.218c-.563-.485-1.148-.945-1.717-1.422a9.051 9.051 0 0 1-.684-.63 5.667 5.667 0 0 0-1.689-1.217c-.451-.21-.861-.49-1.274-.766a14.752 14.752 0 0 0-1.562-.921 10.169 10.169 0 0 1-1.611-1.013c-.43-.33-.895-.613-1.348-.912-.194-.129-.402-.235-.592-.369a1.476 1.476 0 0 1-.338-.314.996.996 0 0 0-.336-.31.82.82 0 0 1-.401-.492 1.703 1.703 0 0 0-.247-.44 1.45 1.45 0 0 1-.136-1.494c.274-.604.534-1.219.966-1.705.007-.06.021-.094.013-.12-.127-.453.03-.831.258-1.224.597-1.03 1.155-2.081 1.733-3.12.136-.244.278-.484.437-.712.982-1.41 1.834-2.901 2.766-4.343a41.974 41.974 0 0 1 2.228-3.084c.401-.512.78-1.04 1.184-1.548.395-.497.815-.974 1.212-1.469.251-.313.488-.638.718-.967.257-.367.489-.752.75-1.116a19.38 19.38 0 0 0 1.771-2.99c.583-1.222 1.364-2.314 2.206-3.369.241-.302.459-.622.704-.922.285-.346.585-.68.881-1.017.162-.183.351-.344.498-.564-.502-.34-.466-.829-.394-1.304.035-.234.243-.396.462-.488a2.24 2.24 0 0 1 .623-.181c.494-.053.992-.065 1.487-.106.432-.035.836.063 1.221.24.733.34 1.473.664 2.137 1.133.56.396 1.18.683 1.812.947.258.108.507.238.767.338.319.122.639.242.969.327.755.195 1.503.405 2.169.823.42.264.838.536 1.233.834.477.36.992.634 1.563.81.387.119.758.273 1.102.493.515.332.952.74 1.305 1.241.249.354.515.696.783 1.036.184.233.419.406.676.561.371.225.73.47 1.08.727.42.307.725.718.985 1.16.16.273.358.486.648.64.505.266.909.643 1.109 1.2a.834.834 0 0 0 .381.452c.567.324.843.845.984 1.454.034.15.057.304.103.45.049.16.092.333.184.468.541.795.755 1.682.779 2.626.017.679.073 1.353.195 2.023.115.634.09 1.255-.191 1.853-.099.21-.146.438-.138.675.008.231.009.464-.007.694-.022.338-.078.662-.284.957-.324.462-.484 1.002-.614 1.541a1.653 1.653 0 0 1-.507.852c-.516.49-1.043.973-1.438 1.575-.09.137-.239.24-.374.342a1.892 1.892 0 0 1-.362.208 5.785 5.785 0 0 0-1.787 1.242c-.468.478-1.069.674-1.693.82-.514.121-1.032.227-1.521.434-.257.11-.519.207-.778.314a3.66 3.66 0 0 1-1.363.27c-.116-.115-.215-.07-.306.034Zm-80.206 12.122v.003c-.265 0-.53.014-.793-.003-.443-.03-.853-.147-1.164-.496a.642.642 0 0 0-.263-.18c-.401-.13-.678-.43-.968-.699-.258-.24-.453-.547-.692-.81a.99.99 0 0 1-.261-.808c.057-.462.193-.904.568-1.233.127-.111.255-.23.35-.368.153-.221.349-.385.563-.544.24-.178.485-.258.782-.19.1.022.238.03.314-.02.269-.18.563-.25.877-.275.059-.005.118-.037.174-.064.547-.26 1.088-.201 1.619.043a4.6 4.6 0 0 0 1.052.365c.246.047.498.134.658.324.206.245.454.355.756.388.031.004.061.013.091.022.575.175.973.746.942 1.337-.027.523-.172.999-.523 1.403-.08.092-.136.206-.206.307-.345.503-.74.955-1.309 1.219-.166.077-.35.155-.528.16a6.32 6.32 0 0 0-1.107.108c-.12.024-.248.01-.373.01-.186.002-.373.001-.559.001Zm-31.132 18.426c.367.059.738.072 1.101.175.233.066.487.082.74.033.165-.032.341-.022.511-.014.295.013.591.026.883.063.183.022.37.063.538.135.326.14.661.185 1.004.126a.94.94 0 0 1 .588.078c.367.175.719.109 1.077-.041.409-.171.563-.509.642-.902.043-.21.079-.423.109-.635.039-.274.091-.55.097-.824a50.09 50.09 0 0 0 .002-1.899c-.003-.245-.044-.49-.066-.734a3.489 3.489 0 0 1-.02-.323c.004-1.528.006-3.056.018-4.584.002-.26.048-.522.072-.783.029-.322.055-.644.086-.966.042-.445.083-.89.132-1.335.043-.383.105-.763.142-1.146.035-.359.113-.698.321-1.002.078-.113.13-.243.195-.368.092-.036.188-.056.262-.107.353-.248.752-.257 1.161-.242.42.016.833-.016 1.249-.114.39-.092.797-.12 1.199-.148.148-.01.307.041.45.095.336.125.669.253 1.035.257.12.001.2.07.275.153.42.46.76.956.991 1.55a4.11 4.11 0 0 1 .273 1.621c-.019.926-.013 1.852-.02 2.778-.005.695-.094 1.383-.166 2.073-.068.644-.127 1.29-.104 1.94a.55.55 0 0 1-.199.479c-.16.146-.224.403-.187.639.123.776.257 1.55.392 2.325.021.12.064.239.113.352a.883.883 0 0 0 .165.276c.568.579 1.227.884 2.058.643.073-.02.15-.025.23-.038.067.053.132.095.186.149.246.247.544.4.868.524.62.24 1.248.26 1.875.077a.967.967 0 0 1 .674.026c.23.091.474.147.712.218.28.084.555.028.827-.039a.51.51 0 0 0 .364-.33 1.51 1.51 0 0 0 .126-.584c-.006-.417.002-.834-.015-1.25-.01-.251.014-.49.111-.724.405-.971.396-1.984.297-3.005-.047-.49-.158-.976-.12-1.473.006-.077-.006-.157.008-.231.113-.597.086-1.2.071-1.8-.012-.469.078-.922.126-1.381.032-.307.083-.614.078-.92-.011-.654.116-1.29.213-1.929.025-.166.084-.328.141-.488.135-.377.288-.749.414-1.13.12-.365.336-.618.72-.718.104-.028.211-.062.304-.115.204-.119.404-.07.624-.053.574.045.83.43 1.048.866.082.163.126.348.174.526.11.405.248.796.506 1.135.106.14.141.3.16.474.038.337.089.672.162 1.003.063.284.148.567.252.839.096.25.165.495.146.764-.038.547.066 1.07.256 1.585.09.243.141.506.171.764a3.86 3.86 0 0 0 .527 1.569c.137.229.229.466.282.727.062.302.157.596.242.893.069.238.162.46.33.656.097.113.14.272.21.409.111.22.209.449.34.656.214.336.51.578.906.685.12.032.234.085.351.125.33.113.64.103.914-.144.032-.028.077-.043.133-.072.086.064.179.12.254.192.261.254.575.404.908.548.587.253 1.21.262 1.825.332.119.014.247-.015.367-.043a1.13 1.13 0 0 1 .773.074c.202.099.416.114.637.103.192-.01.373-.045.529-.156a.7.7 0 0 1 .436-.133c.265.006.484-.11.683-.262a7.736 7.736 0 0 1 1.148-.707c.475-.25.868-.601 1.192-1.022a1.2 1.2 0 0 1 .512-.378c.228-.095.449-.212.659-.342.296-.182.527-.429.673-.75a3.37 3.37 0 0 1 .515-.767c.188-.223.339-.479.491-.73.119-.197.197-.421.326-.612.661-.979.96-2.1 1.299-3.205.15-.486.267-.982.388-1.475a.743.743 0 0 1 .194-.361c.199-.2.348-.434.467-.688.133-.286.348-.512.581-.717.36-.317.743-.61 1.097-.933.34-.312.746-.499 1.165-.666a5.93 5.93 0 0 1 .482-.174c.579-.175.91-.587 1.051-1.141.151-.597.29-1.202.221-1.828-.007-.06-.018-.124-.009-.184.073-.503-.128-.933-.356-1.359a.922.922 0 0 0-.733-.508c-.348-.043-.686-.02-.958.243-.348.335-.769.575-1.143.875a2.398 2.398 0 0 0-.481.56 1.583 1.583 0 0 1-.692.593c-.484.221-.911.532-1.306.884a2.973 2.973 0 0 1-.775.505c-.728.323-1.294.847-1.784 1.458-.29.362-.583.723-.853 1.1a3.2 3.2 0 0 0-.38.684c-.198.502-.365 1.016-.544 1.524a1.205 1.205 0 0 1-.053.129c-.353.686-.707 1.371-1.062 2.057-.05.097-.101.195-.22.222-.392.092-.687.353-1.011.563-.156.101-.314.2-.473.297-.57.348-1.2.481-1.859.538a2.814 2.814 0 0 1-1.236-.157 1.03 1.03 0 0 1-.396-.233 3.051 3.051 0 0 0-.823-.6.668.668 0 0 1-.295-.285 3.775 3.775 0 0 0-.672-.884.846.846 0 0 1-.261-.577c-.029-.415-.059-.832-.056-1.248a.838.838 0 0 1 .359-.674c.269-.199.456-.458.643-.725.132-.19.284-.367.444-.535.213-.224.444-.432.663-.651a.62.62 0 0 1 .308-.193c.289-.067.487-.27.648-.5.123-.177.228-.37.316-.565.14-.31.245-.635.39-.942.112-.235.235-.475.403-.671a4.61 4.61 0 0 0 .732-1.23c.084-.197.205-.379.296-.574.084-.18.175-.364.221-.556.057-.242.124-.475.245-.695a1.31 1.31 0 0 0 .162-.667c-.007-.414.054-.833-.1-1.238-.037-.096-.025-.213-.027-.32-.005-.294-.017-.587-.004-.88.022-.5-.076-.977-.222-1.453a1.654 1.654 0 0 0-.918-1.051 6.673 6.673 0 0 0-1.263-.471 4.263 4.263 0 0 1-1.239-.527 3.529 3.529 0 0 0-1.163-.458 5.918 5.918 0 0 1-1.067-.327c-.722-.296-1.483-.34-2.249-.263a3.184 3.184 0 0 1-1.062-.07 4.605 4.605 0 0 0-1.153-.146 7.338 7.338 0 0 1-1.574-.153c-.4-.08-.806-.09-1.196.062a1.46 1.46 0 0 1-.595.09 3.63 3.63 0 0 0-1.326.225c-.103.035-.203.08-.309.104-.646.142-1.162.502-1.634.94-.034.031-.071.06-.108.088-.012.009-.028.012-.068.027-.037-.003-.099 0-.159-.013-.198-.038-.393-.103-.593-.12a2.645 2.645 0 0 1-1.259-.422c-.369-.243-.808-.31-1.257-.212-.136.03-.275.049-.414.07-.264.04-.525.035-.784-.044a4.961 4.961 0 0 0-.542-.137c-.34-.062-.683-.073-1.013.048a1.8 1.8 0 0 1-.595.091c-1.041.023-2.082.05-3.123.077-.078.002-.158 0-.233.02-.505.124-1.02.088-1.532.09-.498 0-.997-.001-1.494-.012-.485-.01-.963.011-1.432.147a1.137 1.137 0 0 1-.369.037c-.463-.025-.895.09-1.315.262a6.229 6.229 0 0 1-.933.29 3.418 3.418 0 0 0-.655.235c-.281.13-.55.288-.824.434-.342.183-.688.357-1.023.551-.241.14-.473.297-.695.463-.31.232-.607.481-.912.72a2.824 2.824 0 0 0-.627.68c-.204.31-.43.606-.622.922-.152.25-.285.514-.397.783a58.436 58.436 0 0 0-.694 1.767 7.267 7.267 0 0 0-.243.793c-.06.242-.122.478-.284.677-.216.264-.299.576-.297.907.003.506-.112.976-.368 1.415a2.175 2.175 0 0 0-.291 1.153c.004.246.007.493.013.74.007.356-.001.705-.126 1.049-.129.356-.14.732-.007 1.089.175.466.137.939.1 1.416-.015.199-.026.4-.012.6.033.491.087.982.122 1.473.03.42.096.824.317 1.195.059.1.075.233.081.352.033.647.055 1.294.084 1.94.006.123.025.246.048.367.143.741.292 1.482.432 2.224.063.332.116.666.161 1 .029.21.124.379.268.527.108.112.21.225.227.393.027.263.212.404.433.5.157.068.323.113.485.167.11-.028.216-.035.295.069Zm-60.86-45.914c.041.067.064.125.105.167.724.743 1.358 1.564 2.014 2.364a9.442 9.442 0 0 0 1.492 1.455c.845.662 1.614 1.398 2.268 2.25.063.083.142.156.224.244.266-.123.547-.2.725-.42.257-.32.566-.568.915-.777.165-.1.284-.24.336-.427a2.57 2.57 0 0 1 .545-1.009.7.7 0 0 0 .174-.512 8.734 8.734 0 0 1-.002-.647 1.37 1.37 0 0 0-.187-.707c-.157-.283-.328-.56-.472-.85a4.063 4.063 0 0 0-1-1.264c-.515-.445-1.033-.886-1.552-1.327a.64.64 0 0 0-.422-.166c-.531-.005-1.056.02-1.56.212-1.102.418-2.206.832-3.307 1.252-.1.037-.188.101-.296.162Zm18.174 17.547c.202-.069.345-.135.495-.164.35-.067.637-.228.862-.503.078-.095.185-.167.261-.263.106-.131.21-.268.288-.416.137-.259.263-.524.375-.794.082-.198.166-.404.191-.614.056-.458.072-.92.111-1.38a.847.847 0 0 0-.09-.444c-.148-.321-.272-.653-.41-.98a1.674 1.674 0 0 0-.144-.287c-.252-.37-.51-.736-.763-1.105-.088-.129-.177-.246-.335-.306-.319-.121-.626-.276-.95-.381-.589-.193-1.193-.133-1.794-.05-.045.007-.088.03-.131.047-.303.119-.605.241-.909.358-.176.068-.343.151-.462.3-.272.338-.62.553-1.037.668a5.135 5.135 0 0 0-.486.153c-.098.038-.22.082-.271.161-.216.334-.456.657-.617 1.028.101.137.2.256.282.385.163.259.392.424.672.545.255.11.495.255.738.392.538.302.936.76 1.334 1.212.21.238.444.426.716.58.57.326 1.079.723 1.49 1.24.17.216.379.403.584.617Zm-3.298-13.89c.232-.02.463-.046.696-.056.217-.01.435-.008.653-.002a8.79 8.79 0 0 0 1.995-.145c.354-.071.721-.072 1.062.047.59.205 1.201.313 1.811.427a3.5 3.5 0 0 1 1.397.611c.405.288.796.593 1.2.881.278.198.561.389.853.565.276.167.463.404.624.672.312.516.626 1.03.948 1.539.192.303.332.623.426.97.144.536.313 1.065.476 1.595.188.61.326 1.23.235 1.867-.046.323-.058.643-.08.966-.016.245-.043.49-.084.732a2.73 2.73 0 0 1-.34.954c-.17.284-.259.59-.302.915-.016.122-.058.24-.077.361-.055.364-.225.67-.465.942-.267.302-.523.608-.69.983-.115.257-.327.454-.565.604a1.978 1.978 0 0 0-.616.62 3.613 3.613 0 0 1-.929.964 3.468 3.468 0 0 0-.662.647c-.39.494-.861.89-1.382 1.233a4.64 4.64 0 0 0-.864.702c-.373.4-.803.728-1.269 1.012a5.3 5.3 0 0 0-1.487 1.314c-.357.467-.791.871-1.254 1.24a3.427 3.427 0 0 0-.78.85c-.183.29-.42.538-.714.722a2.323 2.323 0 0 0-.759.801c-.304.505-.728.875-1.299 1.071-.414.143-.79.355-1.128.639-.177.147-.385.258-.579.386-.064.042-.143.075-.188.133-.172.221-.418.307-.67.393-.353.122-.668.049-.95-.179-.435-.349-.871-.697-1.295-1.058a10.98 10.98 0 0 1-.884-.82c-.329-.349-.624-.729-.936-1.093a9.73 9.73 0 0 0-2.298-1.944 39.02 39.02 0 0 1-1.172-.758c-.417-.278-.754-.645-1.073-1.024-.76-.9-1.542-1.777-2.39-2.595-.803-.775-1.598-1.558-2.414-2.319-.419-.39-.876-.74-1.314-1.11-.556-.47-1.125-.928-1.662-1.418a10.306 10.306 0 0 1-1.544-1.789c-.616-.894-1.28-1.746-2.072-2.495a9.874 9.874 0 0 1-1.39-1.677c-.32-.475-.679-.92-1.07-1.34a12.542 12.542 0 0 1-.798-.967c-.308-.407-.589-.833-.894-1.243-.187-.25-.237-.535-.25-.828-.01-.257.08-.491.304-.642.45-.301.741-.74 1.056-1.16.232-.31.479-.608.73-.902.463-.54.937-1.073 1.402-1.612.612-.71 1.328-1.3 2.11-1.812.372-.243.679-.541.919-.907a4.37 4.37 0 0 1 .859-.971c.615-.511 1.09-1.138 1.543-1.772-.022-.194-.056-.376-.061-.56-.011-.408.242-.708.594-.782.325-.068.563-.232.782-.46.096-.099.214-.178.328-.26.73-.524 1.463-1.045 2.194-1.57.614-.44 1.278-.763 2.039-.858a4.48 4.48 0 0 1 .464-.038c.31-.006.622-.012.933 0 .594.022 1.18-.037 1.765-.124.75-.11 1.48-.078 2.203.189.552.203 1.127.346 1.694.51.466.135.903.33 1.312.59.55.352 1.124.659 1.705.956.731.375 1.443.788 2.157 1.196.642.368 1.03.926 1.17 1.648.064.323.199.612.367.893.352.59.583 1.226.685 1.905.014.09.016.184.016.276.002.448.016.893.083 1.338.07.467-.051.918-.216 1.355-.026.076.011.09.076.076Zm76.558-30.301c-.649-.324-.649-.324-1.041-.956a5.738 5.738 0 0 1-.207-.362c-.282-.533-.583-1.057-.837-1.602-.305-.656-.838-1.1-1.367-1.553a.428.428 0 0 0-.249-.103c-.498-.01-.996-.012-1.493-.001-.218.005-.299.1-.303.325-.006.417.002.834-.002 1.25-.006.648.008 1.297-.032 1.943-.054.892-.15 1.781-.229 2.671-.034.384-.09.767-.098 1.151-.017.833-.012 1.666-.012 2.5 0 .07-.023.156.076.208.036-.008.083-.009.122-.028.432-.22.892-.364 1.364-.46.537-.109 1.04-.316 1.554-.49a1.26 1.26 0 0 0 .484-.268c.206-.195.447-.326.724-.405a.805.805 0 0 0 .313-.186c.426-.396.761-.86.948-1.411a5.623 5.623 0 0 0 .285-2.223Zm-4.07 22.432c.134-.03.258-.044.371-.086.189-.069.376-.146.555-.238.648-.332 1.29-.678 1.94-1.006.178-.09.375-.15.569-.198.247-.06.484-.065.694.14.102.1.26.145.403.22.433-.504.912-.919 1.403-1.32.046-.039.102-.087.116-.14.098-.354.271-.691.277-1.068a34.46 34.46 0 0 0 0-1.203.765.765 0 0 0-.078-.353 6.089 6.089 0 0 1-.554-1.369.897.897 0 0 0-.319-.495c-.345-.263-.685-.532-1.029-.796a1.095 1.095 0 0 0-.501-.23 3.31 3.31 0 0 1-1.294-.498.855.855 0 0 0-.53-.146 3.25 3.25 0 0 1-1.104-.134 1.017 1.017 0 0 0-.581-.012c-.023.042-.05.069-.051.095a4.424 4.424 0 0 1-.161 1.048c-.027.103-.033.212-.04.319-.027.357.012.712.092 1.056.149.644.114 1.29.034 1.931-.087.705-.175 1.406-.155 2.118.008.277.008.555-.001.832-.009.245-.039.49-.053.735-.015.258-.074.516-.003.798Zm4.604-14.396c.297.274.563.53.841.773.193.168.443.225.686.274.25.051.465.157.677.294.228.146.425.317.55.553.148.28.388.423.673.534.214.084.412.209.615.32.29.158.45.418.554.718.035.102.075.206.086.311.031.3.165.557.289.824.123.263.217.546.279.83.09.406.135.82.208 1.23.024.135.058.271.114.396.27.604.391 1.235.348 1.892-.018.275-.087.547-.123.821-.058.445-.068.89.008 1.336a2.531 2.531 0 0 1-.244 1.617c-.159.315-.259.66-.385.991-.039.101-.076.203-.112.305a3.164 3.164 0 0 1-1.165 1.579 1.771 1.771 0 0 0-.497.545 1.307 1.307 0 0 1-.785.61c-.787.237-1.559.522-2.348.753-.4.117-.819.173-1.233.234-.297.044-.575.115-.832.276-.462.292-.973.481-1.491.649-.407.13-.827.116-1.246.056-.106-.016-.212-.035-.332-.055-.081.075-.155.153-.238.22-.429.343-.897.49-1.415.217-.166-.087-.328-.083-.496-.083a3.417 3.417 0 0 1-1.277-.224c-.453-.178-.917-.18-1.376-.083-.478.101-.947.155-1.431.06-.151-.03-.31-.027-.465-.028-.654-.003-1.307.004-1.961-.006-.244-.004-.459.043-.645.207-.235.209-.516.332-.811.441-.532.198-1.045.139-1.534-.1-.262-.129-.491-.323-.731-.493-.1-.072-.186-.164-.284-.24a1.206 1.206 0 0 0-.775-.261 4.848 4.848 0 0 0-1.266.197c0 .097-.026.195.004.272.099.248.013.483-.033.72-.016.083-.067.192-.135.227-.259.131-.519.27-.833.233-.248-.029-.447-.122-.581-.332a3.076 3.076 0 0 1-.485-1.94c.005-.061.009-.133.042-.178.208-.281.112-.594.104-.896-.005-.185-.042-.369-.042-.553-.002-.866-.147-1.72-.226-2.579-.029-.307-.059-.614-.067-.921a30.028 30.028 0 0 1-.005-1.343c.021-1.145-.141-2.274-.304-3.404-.042-.29-.101-.578-.129-.868-.052-.553-.089-1.107-.131-1.66a22.051 22.051 0 0 0-.305-2.43c-.156-.833-.32-1.665-.467-2.499a20.096 20.096 0 0 1-.268-2.387c-.072-1.339-.145-2.679-.273-4.013-.091-.95-.279-1.889-.412-2.835a8.19 8.19 0 0 1-.102-1.103c-.004-.755.03-1.51.037-2.266.01-.987.01-1.975.014-2.962.001-.14.02-.28.003-.416-.057-.435.503-.8.916-.787a.47.47 0 0 1 .222.058c.13.08.244.19.375.27.152.091.133.268.228.418.154-.077.313-.138.452-.227.619-.4 1.316-.543 2.035-.592.272-.019.512-.095.755-.206a6.46 6.46 0 0 1 .954-.367c.612-.168 1.224-.179 1.822.092.576.26 1.177.265 1.779.108a5.588 5.588 0 0 1 1.707-.195c.077.004.159-.007.232.012.537.135 1.083.079 1.626.096.248.008.494.04.742.052.123.007.251.015.369-.01a6.226 6.226 0 0 1 1.53-.128c.906.03 1.8-.054 2.686-.244.569-.122 1.145-.084 1.72-.067.121.004.244.044.36.087.204.075.405.157.602.249.465.217.936.406 1.437.537a2.335 2.335 0 0 1 1.42 1.056c.156.25.296.508.443.762.214.368.492.673.884.862.028.014.052.034.08.048.554.288.978.69 1.23 1.274.228.53.594.98 1.006 1.38.29.282.474.608.583.982.177.607.348 1.215.506 1.827.054.206.076.424.088.637.015.262-.008.525.005.787.021.453-.06.89-.187 1.322-.164.562-.332 1.123-.486 1.688-.104.382-.281.712-.585.978a1.45 1.45 0 0 0-.442.695 3.077 3.077 0 0 1-.13.347 1.198 1.198 0 0 1-.56.595c-.258.139-.501.306-.755.454-.092.054-.196.09-.295.131-.257.11-.517.212-.771.327a.92.92 0 0 0-.419.335Zm35.881 8.767c-.083.005-.144-.004-.196.014-.19.067-.376.148-.566.215a2.12 2.12 0 0 0-1.068.783 1.953 1.953 0 0 1-1.031.758c-.371.116-.731.262-1.102.377-.291.09-.544.23-.741.46-.171.198-.331.407-.494.613-.4.506-.86.934-1.497 1.132-.119.037-.232.09-.348.135-.381.15-.729.35-1.002.66-.367.417-.728.84-1.089 1.264-.015.017-.002.058-.002.103.339.294.732.464 1.199.526 1.2.158 2.337.51 3.344 1.204.51.352 1.022.704 1.521 1.072.296.22.607.43.822.743.009.014.056.002.105.002.159-.293.221-.626.291-.956.105-.498.227-.989.419-1.465.12-.297.184-.62.239-.938.132-.759.24-1.522.365-2.282.096-.578.203-1.153.306-1.73.149-.834.272-1.674.514-2.49.016-.054.007-.115.011-.2Zm-16.928 12.002a1.309 1.309 0 0 1-.986-.542c-.22-.29-.531-.468-.849-.636a16.349 16.349 0 0 1-.81-.459 3.135 3.135 0 0 0-.725-.304c-.653-.197-1.296-.43-1.942-.652a24.365 24.365 0 0 1-1.006-.37c-.519-.206-1.031-.428-1.551-.634-.229-.09-.333-.266-.391-.483-.008-.03-.01-.061-.015-.091-.082-.49.01-.896.547-1.072.006-.1.02-.176.015-.25-.017-.23.039-.416.243-.562.105-.076.173-.21.241-.328.175-.307.461-.447.787-.523.184-.043.318.074.437.176.205-.015.327-.142.449-.256.361-.34.715-.687 1.072-1.03.693-.666 1.377-1.341 2.082-1.994.513-.474 1.097-.861 1.708-1.204.433-.243.875-.47 1.316-.7a6.562 6.562 0 0 0 1.436-1.021c.624-.58 1.249-1.162 1.911-1.696.591-.476 1.228-.896 1.854-1.327a9.674 9.674 0 0 0 1.328-1.089 31.443 31.443 0 0 1 2.056-1.883 8.725 8.725 0 0 1 1.977-1.215 7.467 7.467 0 0 0 1.984-1.278 26.378 26.378 0 0 1 2.884-2.275c.67-.455 1.394-.811 2.093-1.214.187-.108.372-.225.542-.358.454-.355.944-.66 1.458-.913.791-.39 1.461-.934 2.108-1.516.149-.134.309-.257.465-.385a2.73 2.73 0 0 1 1.161-.568c.253-.054.47-.162.67-.311.61-.457 1.273-.828 1.936-1.202.295-.166.567-.378.838-.583.212-.159.422-.315.68-.395.253-.077.46-.046.695.114.248.17.399.377.497.643.106.291.174.588.186.901a7.152 7.152 0 0 1-.132 1.518c-.111.622-.22 1.244-.324 1.867-.021.12-.02.246-.021.369-.006.447-.024.895-.008 1.342a3.8 3.8 0 0 1-.204 1.365c-.274.807-.323 1.626-.196 2.465.069.462.036.922-.123 1.368-.158.441-.196.902-.219 1.364a6.777 6.777 0 0 0 0 .741c.043.715-.075 1.41-.217 2.107-.141.694-.241 1.397-.353 2.096-.127.792-.246 1.584-.505 2.348-.164.484-.24.988-.315 1.492a.762.762 0 0 0 .031.408c.21.52.171 1.063.109 1.598-.062.535-.185 1.062-.27 1.595a173.72 173.72 0 0 0-.363 2.376c-.115.779-.156 1.563-.197 2.35a48.78 48.78 0 0 1-.193 2.674 13.96 13.96 0 0 1-.583 2.756c-.29.91-.369 1.843-.41 2.783-.023.54-.02 1.08-.188 1.601-.098.308-.211.61-.324.912a.282.282 0 0 1-.119.14c-.406.212-.822.39-1.273.126a1.22 1.22 0 0 0-.474-.173c-.574-.074-1.071-.308-1.45-.757-.039-.047-.088-.087-.131-.131-.236-.24-.51-.4-.855-.424a9.646 9.646 0 0 1-.509-.054c-.231-.028-.464-.045-.69-.094a1.677 1.677 0 0 1-1.034-.663c-.064-.088-.133-.172-.194-.26-.101-.146-.24-.227-.406-.293a8.737 8.737 0 0 1-1.058-.48c-.276-.154-.555-.289-.864-.325-.382-.045-.571-.259-.673-.602-.097-.325-.213-.645-.325-.965a3.476 3.476 0 0 1-.19-1.183 3.57 3.57 0 0 0-.195-1.18c-.054-.162-.11-.322-.27-.45-.15.051-.308.11-.468.16-.309.098-.61.085-.907-.053a2.617 2.617 0 0 1-.915-.702c-.209-.249-.436-.482-.649-.727-.356-.41-.808-.678-1.309-.86-.614-.225-1.219-.464-1.798-.768a1.456 1.456 0 0 0-.35-.117c-.223-.052-.401-.152-.514-.36a.85.85 0 0 0-.475-.403c-.201.112-.423.222-.63.354-.537.342-1.066.695-1.6 1.041-.156.101-.308.219-.479.286-.474.185-.784.562-1.07.937-.211.278-.467.434-.768.56-.071.03-.149.044-.217.08-.242.13-.479.065-.714-.014a.452.452 0 0 1-.19-.125c-.222-.255-.265-.845-.09-1.14.039-.066.097-.122.136-.188.048-.08.007-.145-.055-.2-.201-.12-.402-.07-.604-.003Zm-68.308-.869c.228-.096.462-.18.684-.29.642-.318 1.226-.726 1.795-1.156a9.556 9.556 0 0 1 2.225-1.249c.36-.144.714-.3 1.072-.45.258-.107.515-.22.8-.237.19-.011.371-.007.513.153.027.03.104.019.193.032-.03-.098-.036-.16-.065-.208-.086-.146-.194-.281-.27-.432a1.804 1.804 0 0 0-.578-.653 4.393 4.393 0 0 1-1.002-1.023 8.504 8.504 0 0 0-.494-.615c-.98-1.118-2.05-2.15-3.109-3.193-.043-.042-.095-.076-.18-.141-.264.174-.546.016-.8-.018-.046.029-.066.034-.07.045-.2.515-.221 1.34-.051 1.853.176.53.174.566-.054 1.084a.987.987 0 0 0-.07.217c-.022.116-.082.207-.185.25-.188.078-.236.235-.253.408-.067.674-.155 1.348-.186 2.024-.053 1.185-.07 2.372-.103 3.558.01.056.007.148.035.16.093.035.128-.043.153-.119Zm2.226 4.53v.786c0 .139.009.278.003.416-.018.411-.126.766-.466 1.058a7.78 7.78 0 0 1-1.122.821c-.37.216-.793.352-1.204.49a3.182 3.182 0 0 0-.871.43c-.176.126-.355.25-.529.38a4.356 4.356 0 0 1-1.955.817c-.315.05-.596.169-.849.359-.223.167-.445.338-.672.498-.596.42-1.247.682-1.99.69-.437.006-.87.058-1.285.198-.329.112-.645.046-.96-.043a.474.474 0 0 1-.31-.262c-.159-.337-.3-.676-.293-1.06.009-.508-.008-1.015.05-1.524.048-.411.002-.832.015-1.249.022-.665-.057-1.323-.134-1.98-.007-.062-.014-.124-.017-.185-.034-.724-.063-1.448-.1-2.171-.02-.384-.063-.768-.081-1.152-.036-.755-.063-1.511.031-2.265.065-.52.143-1.037.208-1.557.017-.137.01-.277.011-.416 0-.941.008-1.883-.002-2.824-.01-.88.07-1.754.157-2.629.045-.444.034-.894.047-1.34.035-1.172.06-2.344.108-3.515.023-.57.088-1.137.134-1.705.007-.092.01-.185.014-.278.038-.986.062-1.973.118-2.958.07-1.231.169-2.46.472-3.663.11-.435.163-.876.159-1.328a36.75 36.75 0 0 1 .027-1.712c.014-.384.052-.768.09-1.151.097-1.014.244-2.021.48-3.012a11.6 11.6 0 0 1 .644-1.978c.074-.169.171-.328.266-.487.188-.317.493-.462.84-.527.134-.025.276-.022.39.096a.753.753 0 0 0 .227.156c.11.051.164.134.192.244.115.46.342.852.708 1.161.023.02.05.044.057.072.099.345.403.498.661.687.44.322.847.673 1.205 1.087a11.88 11.88 0 0 0 2.441 2.136c1.039.688 2 1.464 2.83 2.4.4.452.857.847 1.35 1.203.314.227.617.473.897.738a361.54 361.54 0 0 1 3.326 3.18c.344.333.652.703.988 1.046.454.465.921.918 1.377 1.382.293.298.59.593.857.913.479.574 1 1.098 1.618 1.525.487.337.92.735 1.334 1.155.665.672 1.345 1.327 2.003 2.005.322.333.615.694.909 1.052.166.203.31.425.461.64.394.566.88 1.037 1.457 1.417.22.145.434.3.649.452.606.43 1.061.992 1.456 1.608.217.338.44.673.644 1.02.117.197.207.411.297.623.12.283.077.576.015.863a.523.523 0 0 1-.146.227.427.427 0 0 1-.197.117c-.456.1-.76.399-1.031.747-.076.097-.164.186-.24.284a2.745 2.745 0 0 1-1.176.882c-.087.034-.175.065-.261.099-.593.23-1.186.455-1.72.817-.37.252-.79.423-1.216.58-.553.204-1.099.43-1.64.663a1.495 1.495 0 0 1-1.001.071c-.3-.079-.607-.137-.904-.225a1.902 1.902 0 0 1-.728-.403 1.647 1.647 0 0 0-.691-.363 2.409 2.409 0 0 1-.952-.475.66.66 0 0 0-.47-.166c-.201.008-.404-.003-.606.012a.855.855 0 0 0-.356.087c-.528.309-1.106.492-1.687.66-.451.13-.88.299-1.293.521a9.115 9.115 0 0 1-1.549.635c-.328.107-.638.237-.899.471a2.117 2.117 0 0 1-.387.258c-.168.094-.233.229-.23.418.006.416.002.833.002 1.25h-.005Z"/>
      <path fill="#A87E23" d="M133.837 60.173c-.072-.267-.134-.538-.219-.802a6.418 6.418 0 0 0-.846-1.693 2.494 2.494 0 0 1-.379-.786c-.085-.312-.209-.613-.308-.922a2.932 2.932 0 0 0-.399-.83c-.116-.16-.18-.357-.265-.538-.188-.396-.466-.683-.916-.786a.477.477 0 0 0-.359.043c-.239.141-.465.296-.588.568a7.21 7.21 0 0 0-.472 1.45c-.036.165-.074.333-.082.502-.02.41-.142.787-.348 1.139-.332.567-.526 1.182-.66 1.82-.037.179-.099.354-.162.574-.095-.077-.186-.117-.221-.185a7.69 7.69 0 0 1-.275-.638c-.257-.65-.706-1.155-1.236-1.598a61.851 61.851 0 0 1-.498-.419 1.047 1.047 0 0 1-.353-.585c-.023-.105-.059-.208-.075-.314a1.258 1.258 0 0 0-.375-.73 1.47 1.47 0 0 1-.388-.614c-.114-.346-.371-.558-.727-.655a.53.53 0 0 0-.444.061c-.276.17-.478.385-.522.719-.031.228-.101.456-.103.684-.004.539.017 1.078.039 1.617.02.477.059.953.082 1.43.039.816.071 1.633.109 2.449.022.477.045.955.08 1.432.015.199.04.401.095.592.14.49.297.973.452 1.458.075.235.229.376.473.465.313.114.622.188.954.177.233-.007.467.013.7 0 .517-.027 1.024.056 1.534.105.263.026.526.051.789.055 1.042.015 2.084.02 3.126.033.39.006.776-.004 1.156-.109.303-.084.616-.085.927-.074.36.013.712-.029 1.064-.105a3.66 3.66 0 0 1 .691-.08c.513-.012 1.026-.002 1.54-.003.187 0 .359.023.535.118a1.1 1.1 0 0 0 .622.146c.296-.024.458-.158.537-.42.049-.163.092-.328.124-.494.051-.257.1-.515.133-.774a2.71 2.71 0 0 0 .006-.46 4.889 4.889 0 0 0-.322-1.527c-.198-.526-.229-1.095-.152-1.645.102-.739.103-1.476.107-2.216.003-.494.001-.987 0-1.481 0-.108-.007-.216-.009-.324-.01-.484-.36-.68-.746-.744a.466.466 0 0 0-.308.067c-.23.155-.451.323-.6.57-.481.793-.97 1.583-1.218 2.487-.155.56-.509 1.019-.768 1.526-.053.106-.161.134-.269.163-.056.016-.104.064-.155.097-.034.08-.069.1-.108.004Z"/>
      <path fill="#F0BD40" d="M151.313 48.746c.202-.067.403-.117.604.003-.088.027-.175.058-.264.079-.126.03-.245.019-.34-.082Zm61.277 13.205c.092-.104.19-.15.306-.034-.092.103-.196.097-.306.034Zm-66.655 30.548c.08-.104.185-.097.296-.069-.086.077-.166.178-.296.069ZM55.266 50.242c-.063.014-.1 0-.074-.074l.074.074Zm58.548 6.975c-.038.094-.072.073-.105-.004l.105.004Z"/>
      <path fill="#fff" d="M132.383 74.073h.56c.124 0 .252.014.372-.01a6.38 6.38 0 0 1 1.108-.109c.178-.004.362-.083.528-.16.568-.263.964-.716 1.309-1.218.07-.102.126-.215.206-.308.351-.404.495-.88.523-1.402a1.352 1.352 0 0 0-.943-1.337c-.03-.009-.06-.019-.09-.022-.302-.034-.551-.143-.757-.388-.159-.19-.412-.277-.658-.325a4.555 4.555 0 0 1-1.052-.365c-.53-.244-1.071-.303-1.618-.042-.056.026-.115.058-.175.063-.314.025-.608.095-.876.275-.076.05-.214.043-.314.02-.298-.067-.542.013-.782.19-.214.159-.41.323-.563.545a2.097 2.097 0 0 1-.35.368c-.375.329-.511.77-.568 1.232a.99.99 0 0 0 .26.81c.24.261.434.568.693.808.29.27.566.57.967.7a.634.634 0 0 1 .263.18c.311.348.722.466 1.165.495.263.018.528.004.792.004v-.004Z"/>
      <path fill="#F0BD40" d="m82.816 47.842.182.04c-.023.072-.057.149-.147.114-.028-.011-.024-.1-.035-.154Z"/>
      <path fill="#000" d="M137.386 64.447c-.079-.026-.15-.048-.219-.073-.525-.194-1.048-.38-1.618-.41a5.4 5.4 0 0 1-.829-.127c-.7-.147-1.404-.239-2.123-.215-1.881.064-3.762-.02-5.643-.035-.062 0-.124-.012-.186-.013-.357-.005-.715-.016-1.072-.011-.377.004-.739.08-1.08.25-.251.125-.519.2-.817.231-.067-.686-.134-1.36-.198-2.033-.026-.276-.037-.554-.067-.829-.043-.398-.105-.794-.146-1.193-.082-.796-.217-1.588-.216-2.392 0-.046-.017-.091-.021-.137-.017-.23-.047-.461-.045-.692a8.647 8.647 0 0 0-.097-1.428c-.034-.212-.03-.43-.034-.645-.001-.052.035-.105.058-.17.064.04.113.055.139.088.198.257.396.514.585.778.153.212.297.431.438.652.057.09.121.186.141.287.075.389.242.729.493 1.034.048.058.071.136.113.2.1.156.188.324.313.457a.992.992 0 0 1 .252.484.973.973 0 0 0 .177.42c.055.07.069.17.111.25.056.108.104.226.185.311.13.138.23.285.308.458.048.105.136.224.237.269.396.175.794.347 1.252.291.288-.035.51-.145.631-.405a6.36 6.36 0 0 0 .313-.77c.264-.837.422-1.705.784-2.512.061-.137.063-.3.09-.451.029-.167.028-.344.086-.5.135-.367.204-.743.242-1.128a.549.549 0 0 1 .217-.415c.068.073.144.128.18.203.054.11.063.241.119.348.155.29.245.598.304.918.008.045.023.09.04.133.284.734.396 1.523.729 2.241.005.259.161.42.364.53.014.134.031.24.033.348.008.422.068.827.332 1.18a.697.697 0 0 1 .108.255c.05.217.172.354.396.404.09.02.172.073.262.093.323.071.621.026.847-.235.183-.21.358-.427.522-.65.455-.624.794-1.322 1.262-1.938a.672.672 0 0 0 .091-.16c.213-.547.581-1.02.751-1.587a.732.732 0 0 1 .272-.397c.081.208.156.39.221.574.026.071.031.15.038.226.024.245.053.491.063.737.022.585.06 1.17-.037 1.754a1.38 1.38 0 0 0-.011.504c.096.438.158.878.163 1.326 0 .108.018.217.044.321.21.831.138 1.688.223 2.53.014.147.028.307-.07.466Zm-6.054 23.455a1.215 1.215 0 0 0-.312-.651.5.5 0 0 1-.133-.284c-.01-.28-.139-.505-.307-.71a.98.98 0 0 1-.208-.862c.074-.383.01-.742-.321-1.006-.211-.168-.224-.377-.18-.625a2.45 2.45 0 0 0 .031-.689c-.034-.32-.108-.638-.18-.953-.086-.374-.209-.742-.092-1.132.012-.043.004-.092.002-.138-.031-.539-.059-1.078-.096-1.616a6.932 6.932 0 0 0-.08-.642 2.453 2.453 0 0 0-.109-.448c-.213-.59-.563-1.095-.993-1.55a2.041 2.041 0 0 0-.894-.562c-.332-.104-.665-.131-1.01-.143-.8-.03-1.356.397-1.812.966-.229.286-.378.637-.545.967-.155.307-.212.642-.238.984-.014.2-.039.398-.06.597-.053.524-.103 1.051.017 1.567.233 1 .148 1.998-.012 2.99-.167 1.036-.375 2.064-.235 3.122.005.03.001.062.003.093.019.316-.047 1.02-.153 1.336-.205.616-.191 1.249-.143 1.879.031.407-.063.793-.094 1.19a1.637 1.637 0 0 1-.821.182c-.402-.02-.802-.092-1.204-.12-.464-.032-.929-.079-1.392.038a3.02 3.02 0 0 1-1.433.04c-.378-.086-.747-.209-1.12-.316a.424.424 0 0 1-.315-.312c-.054-.223-.111-.452-.116-.68-.01-.358-.034-.707-.204-1.01.253-.716.249-.473.281-1.416.002-.062.011-.124.013-.185.028-1.019.029-2.037-.077-3.052-.036-.353-.049-.7.053-1.054.08-.277.094-.578.105-.87.02-.523-.003-1.05.026-1.573.031-.543-.08-1.072-.116-1.609-.011-.157-.044-.297-.157-.422a1.233 1.233 0 0 1-.213-.348c-.3-.74-.826-1.298-1.439-1.788a.748.748 0 0 0-.203-.113c-.378-.142-.755-.276-1.173-.26a3.27 3.27 0 0 1-.741-.06 3.506 3.506 0 0 0-1.433.008c-.318.069-.626.184-.961.175-.119-.003-.244.046-.358.093-.286.117-.561.267-.853.368-.432.147-.728.43-.995.79a1.99 1.99 0 0 0-.403 1.298c.018.541-.039 1.076-.094 1.614-.04.382-.031.764.044 1.15.085.436.112.883.163 1.326a.259.259 0 0 1-.008.092c-.086.359-.123.727-.252 1.079a4.211 4.211 0 0 0-.27 1.493c.005.849 0 1.697.002 2.545 0 .154.005.309.017.462.022.276.045.553.077.827.037.304-.031.583-.183.844-.237.406-.53.718-1.066.675-.231-.018-.466.007-.699.016a3.36 3.36 0 0 1-1.016-.11 3.315 3.315 0 0 0-1.618-.024c-.632.145-1.266.167-1.9.154-.459-.01-.912-.12-1.289-.451-.314-.276-.505-.563-.45-.998.026-.21-.035-.428-.035-.642 0-.339.028-.678.025-1.017-.006-.494-.036-.987-.045-1.48-.014-.772-.024-1.542.05-2.313.061-.63.062-1.263.004-1.895-.04-.445-.068-.893-.075-1.34-.011-.74.001-1.48-.002-2.22 0-.138-.027-.276-.043-.414-.052-.46-.07-.92-.034-1.383.022-.276.056-.554.05-.83-.02-.73.076-1.447.19-2.163.05-.32.12-.637.103-.964a.827.827 0 0 1 .115-.438c.115-.218.22-.444.293-.677.079-.25.16-.498.288-.73.045-.08.098-.165.11-.253.047-.344.23-.635.354-.949a1.54 1.54 0 0 1 .356-.535c.109-.11.213-.225.324-.333.733-.713 1.466-1.425 2.202-2.134a.877.877 0 0 1 .259-.19c.316-.13.632-.268.962-.352a3.13 3.13 0 0 0 .815-.33 3.604 3.604 0 0 1 1.363-.452 4.004 4.004 0 0 0 1.248-.357c.42-.203.852-.38 1.339-.33.046.004.093-.007.14-.011.823-.077 1.645-.097 2.465.04.123.02.249.02.373.023.529.01 1.058.023 1.587.027 1.135.01 2.271.005 3.406.028.527.012 1.058.048 1.579.125.48.072.957.106 1.44.103.311-.001.623.001.934.007.072.001.158-.018.225.102-.043.167-.146.339-.228.519-.211.464-.419.931-.527 1.43-.091.422-.142.852-.209 1.279-.053.342-.051.696.108.997.171.325.246.666.295 1.012.063.441.232.815.489 1.179.387.549.919.909 1.482 1.239.24.14.493.263.746.38.267.124.536.247.815.342.307.105.678.01.809-.194.158-.246.182-.527.121-.803-.054-.247-.258-.367-.479-.465-.382-.17-.768-.337-1.136-.536-.48-.26-.923-.57-1.207-1.058a.997.997 0 0 1-.146-.383 18.107 18.107 0 0 0-.153-.953.516.516 0 0 0-.102-.254c-.197-.214-.146-.456-.116-.702.085-.698.332-1.342.64-1.97.168-.344.402-.623.707-.846.559-.41 1.216-.608 1.857-.839a.758.758 0 0 1 .231-.03c.28-.008.56-.02.839-.014 1.011.024 2.02.069 3.031.08 1.026.01 2.053.005 3.079-.024.565-.016 1.119.058 1.666.152.476.082.95.153 1.428.217.496.066.961.234 1.363.553.193.152.405.293.631.388.355.15.624.4.887.66.088.088.163.187.242.283.326.392.657.78.975 1.178.217.273.338.584.323.944-.006.136.032.273.051.41.02.137.045.274.062.411.119.928-.248 1.756-.551 2.595-.03.084-.108.15-.157.228-.09.144-.198.282-.258.438a2.152 2.152 0 0 1-.502.769c-.11.109-.22.22-.31.346-.251.351-.538.688-.723 1.072-.168.348-.354.684-.531 1.027-.123.237-.3.424-.49.61-.44.431-.929.816-1.279 1.338-.144.216-.33.405-.438.649a.568.568 0 0 1-.165.22c-.269.205-.347.494-.419.802-.073.314-.148.638-.292.923-.209.411-.261.813-.12 1.246.028.088.04.18.064.27.121.464.261.92.549 1.317.127.174.241.359.377.525.065.08.164.134.254.19.117.072.241.136.362.202.095.052.186.112.286.151.362.14.726.275 1.091.406.131.046.267.078.402.114.194.053.395.088.583.159.223.084.448.122.684.124.155.002.311-.001.466.008.366.02.717-.003.989-.293.02-.022.051-.035.078-.049.427-.22.848-.453 1.284-.652.513-.234.887-.605 1.198-1.06.19-.279.361-.574.651-.779.157-.11.216-.299.25-.483.075-.397.262-.753.432-1.112.106-.224.235-.432.254-.687a.778.778 0 0 1 .081-.263c.213-.445.444-.882.645-1.332.325-.73.891-1.298 1.304-1.968a.258.258 0 0 1 .063-.067c.282-.227.473-.526.697-.803.696-.86 1.499-1.607 2.506-2.111.152-.076.293-.175.439-.263.344-.209.678-.438 1.036-.62.274-.14.574-.24.873-.318.273-.072.42.01.5.28.144.487.296.97.474 1.448.134.359.04.695-.344.906a1.37 1.37 0 0 0-.429.351c-.251.33-.584.547-.928.761a16.69 16.69 0 0 0-1.078.73c-.325.237-.627.504-.943.754-.354.281-.69.576-.906.984-.056.107-.151.195-.225.294-.166.222-.333.444-.495.67-.099.137-.174.294-.287.419-.192.214-.307.46-.387.73-.058.191-.106.392-.2.566a3.482 3.482 0 0 0-.419 1.456.915.915 0 0 1-.159.477 2.644 2.644 0 0 0-.347.754c-.043.147-.111.287-.177.427-.33.705-.798 1.32-1.274 1.93-.325.417-.713.773-1.079 1.152-.439.454-.988.743-1.525 1.052-.092.053-.204.073-.307.108-.454.158-.918.293-1.359.482-.291.125-.575.227-.892.235a1.699 1.699 0 0 0-.277.036c-.476.09-.954.132-1.439.125-.264-.004-.53-.01-.793.008-.687.05-1.362.03-2.028-.183-.489-.156-.976-.302-1.384-.626a.709.709 0 0 0-.158-.098 2.25 2.25 0 0 1-.755-.528c-.117-.12-.268-.21-.385-.33-.204-.21-.393-.434-.652-.722Zm7.58-22.614c0-.1-.006-.207 0-.314.065-1.005-.021-2.005-.079-3.007-.009-.154-.012-.311-.048-.46-.105-.422-.087-.86-.162-1.28-.124-.695-.015-1.384-.052-2.073-.032-.586-.05-1.172-.093-1.756a1.75 1.75 0 0 0-.139-.58 1.405 1.405 0 0 1-.115-.63c.002-.108-.007-.216-.002-.324.02-.424-.209-.71-.555-.893a2.086 2.086 0 0 0-.705-.22c-.54-.07-.978.18-1.213.67-.254.528-.489 1.064-.735 1.595-.052.111-.13.212-.177.325-.24.588-.654 1.077-.941 1.64a2.125 2.125 0 0 1-.468.644c-.066-.12-.1-.258-.188-.327-.246-.192-.301-.449-.324-.732a.777.777 0 0 0-.075-.265c-.236-.492-.335-1.025-.492-1.54-.202-.663-.388-1.33-.646-1.975-.07-.172-.73-1.013-.889-1.115a1.407 1.407 0 0 0-1.071-.213.942.942 0 0 0-.597.414c-.261.417-.558.83-.634 1.33-.079.518-.222 1.022-.324 1.533-.063.32-.124.63-.264.926-.072.151-.09.326-.137.49-.134.473-.271.946-.417 1.456-.072-.06-.158-.094-.174-.15-.094-.308-.315-.565-.354-.897-.011-.098-.089-.199-.16-.276-.212-.23-.363-.496-.533-.754-.199-.301-.369-.602-.438-.958a.688.688 0 0 0-.112-.252c-.254-.369-.514-.733-.772-1.097a8.2 8.2 0 0 0-.221-.298c-.124-.157-.252-.311-.377-.467-.096-.12-.207-.23-.285-.36-.227-.384-.58-.545-1.006-.57a1.366 1.366 0 0 0-1.406 1.035 2.558 2.558 0 0 0-.065.826c.036.584.01 1.173.138 1.75.023.104.01.216.012.324.006.462-.03.926.081 1.383a.58.58 0 0 1 .008.138c-.006.62.111 1.227.163 1.84.072.86.266 1.707.258 2.576-.003.382.085.765.126 1.149.016.153.02.307.022.462.001.042-.024.085-.041.139-.374-.01-.743-.019-1.112-.026-.187-.004-.374-.008-.56-.005a7.412 7.412 0 0 1-1.486-.108c-.644-.12-1.3-.116-1.953-.125-.669-.01-1.338-.014-2.006-.019-.53-.004-1.059-.004-1.588-.01a16.994 16.994 0 0 1-1.675-.09c-.726-.078-1.46-.07-2.19-.001-.217.02-.435.026-.652.028-.252.004-.49.046-.721.16-.278.137-.564.26-.855.37a2.489 2.489 0 0 1-.54.138c-.716.1-1.4.288-2.023.663a1.406 1.406 0 0 1-.254.114c-.381.134-.76.274-1.145.394-.367.114-.667.326-.937.587-.724.698-1.447 1.4-2.168 2.101-.167.162-.327.33-.487.5-.192.204-.352.427-.437.701-.046.146-.135.277-.195.42-.078.184-.147.372-.217.559-.054.144-.103.29-.157.433-.04.1-.1.195-.126.299a4.268 4.268 0 0 1-.456 1.108c-.155.27-.204.58-.203.893a5.87 5.87 0 0 1-.08.92c-.124.807-.249 1.616-.215 2.44.01.242-.035.49-.068.733-.029.214-.06.424-.019.643.032.165.019.338.036.507.063.629.08 1.26.076 1.892-.002.292.019.585.004.877-.018.356.022.707.049 1.06.07.924.07 1.846.003 2.773-.052.72-.007 1.448-.018 2.173-.011.77.103 1.54-.015 2.31a.965.965 0 0 0 .007.369c.049.2.022.393.017.593-.008.338.078.675.237.975.192.364.764.957 1.113 1.146.2.109.433.164.657.224.209.056.43.07.637.131.318.094.64.134.967.115.62-.036 1.239-.043 1.855-.177.436-.095.896-.102 1.339.045.117.039.243.076.364.075a86.26 86.26 0 0 0 2.098-.037.94.94 0 0 0 .731-.356c.058-.072.133-.13.205-.188.684-.56.949-1.321 1.018-2.157.033-.396-.025-.8-.042-1.2-.01-.231-.028-.461-.029-.692-.005-.74.003-1.482-.01-2.222a2.714 2.714 0 0 1 .145-.907c.205-.617.32-1.255.399-1.899a.724.724 0 0 0-.011-.321c-.173-.487-.053-1.015-.226-1.503-.048-.137-.009-.306 0-.46.03-.523.079-1.046.092-1.57.01-.367.181-.605.494-.768.401-.21.811-.385 1.276-.41.152-.009.301-.07.451-.111a2.621 2.621 0 0 1 1.291-.036c.27.06.555.072.833.07.236-.001.425.061.581.235.144.16.306.308.437.48.219.287.356.603.341.982-.01.243.038.49.074.734.018.12.031.277.11.347.225.201.168.449.171.69.003.2-.003.401.003.602.012.434-.013.861-.141 1.281-.134.44-.062.889-.017 1.334.091.907.097 1.817.072 2.727-.004.139-.024.278-.023.416.001.16-.044.3-.117.44a3.72 3.72 0 0 0-.238.55c-.122.373-.081.732.156 1.052.089.12.107.246.125.386.048.382.09.768.186 1.139.125.488.425.848.922 1.026.598.215 1.187.462 1.818.572a4.231 4.231 0 0 0 1.669-.02c.356-.08.711-.09 1.067-.07.388.023.776.05 1.159.11.557.088 1.083-.042 1.61-.178.315-.082.542-.274.693-.572.176-.352.29-.707.297-1.105.007-.369.1-.734.056-1.107-.022-.183-.015-.37-.028-.554a2.061 2.061 0 0 1 .181-.991 2.61 2.61 0 0 0 .172-1.626 5.27 5.27 0 0 1 .041-2.162c.203-.939.292-1.89.303-2.846a7.438 7.438 0 0 0-.118-1.288 4.43 4.43 0 0 1-.045-1.29c.008-.061.022-.123.02-.184-.018-.55.209-1.016.504-1.46.346-.522.654-.514 1.212-.426a.28.28 0 0 1 .154.098c.214.263.449.508.613.811.213.392.249.822.295 1.25.027.243.033.489.051.768-.045.042-.121.096-.175.166-.163.21-.271.433-.201.716.052.212.099.415.287.56a.386.386 0 0 1 .117.193c.072.252.141.505.192.761.052.257.047.509-.028.773-.114.405-.062.825.071 1.22.056.165.213.297.335.46-.03.313.044.623.152.933.116.333.187.675.436.956.104.117.132.309.167.473.032.155.073.304.185.416.152.151.22.343.248.538a.65.65 0 0 0 .31.49c.225.143.425.304.545.553.037.078.12.143.196.194.231.158.449.323.618.555.065.09.199.144.313.186.237.088.451.208.64.373.142.124.308.202.484.27.303.118.596.261.899.38.143.054.299.076.45.111.091.02.187.025.273.057.675.248 1.375.22 2.076.199.311-.01.622-.032.933-.026.798.016 1.578-.141 2.364-.24.121-.016.239-.068.355-.11.248-.088.493-.184.742-.27.882-.307 1.746-.653 2.51-1.2.139-.1.28-.199.405-.314.707-.651 1.377-1.333 1.937-2.122.314-.443.615-.89.865-1.37.043-.082.091-.162.128-.247.216-.494.398-1.002.677-1.469.128-.213.164-.466.163-.715 0-.3.063-.582.218-.841a.677.677 0 0 0 .097-.21c.114-.612.52-1.075.824-1.59.069-.119.169-.22.255-.329.124-.158.267-.305.367-.477.2-.344.484-.598.802-.827.188-.136.385-.266.551-.426.348-.338.749-.599 1.164-.844.214-.127.423-.262.627-.403.127-.088.259-.18.355-.298.228-.28.494-.504.795-.704.248-.165.407-.426.49-.715.229-.794.251-1.576-.118-2.346a4.043 4.043 0 0 1-.259-.788c-.23-.94-1.027-1.51-1.994-1.441-.543.038-1.026.252-1.498.482-.403.198-.776.453-1.162.684-.107.064-.206.141-.316.198a9.17 9.17 0 0 0-2.214 1.607c-.365.357-.72.723-.997 1.157-.081.129-.203.233-.31.344-.085.09-.193.162-.264.26-.341.478-.685.954-1.006 1.444-.339.519-.587 1.086-.854 1.643-.193.403-.436.78-.493 1.234-.284.563-.495 1.163-.842 1.693-.243.373-.456.774-.807 1.067a1.62 1.62 0 0 1-.302.212c-.428.216-.86.422-1.292.633-.027.013-.058.023-.083.041-.396.296-.812.222-1.233.066-.029-.01-.057-.027-.087-.035-.24-.06-.495-.087-.717-.186-.226-.102-.439-.226-.686-.278a1.165 1.165 0 0 1-.625-.378 2.483 2.483 0 0 1-.579-1.145.476.476 0 0 1-.005-.225c.108-.4.226-.8.341-1.2a.282.282 0 0 1 .04-.082c.341-.478.659-.974 1.032-1.425.274-.332.613-.612.938-.9a2.29 2.29 0 0 0 .524-.644c.216-.408.474-.791.647-1.227.116-.294.346-.545.54-.805.12-.16.258-.31.401-.45.237-.233.399-.51.535-.808.07-.152.167-.293.255-.438.064-.105.152-.2.196-.313.42-1.063.832-2.122.787-3.303-.022-.588-.116-1.162-.183-1.741-.056-.489-.286-.908-.594-1.289-.398-.492-.783-.998-1.228-1.45-.269-.275-.576-.515-.908-.808Zm62.446-34.668c-.045.03-.078.042-.095.065-.291.4-.574.804-.924 1.16a1.102 1.102 0 0 0-.24.388 1.752 1.752 0 0 0-.088.494c-.01.178-.077.3-.252.34-.192.046-.275.188-.347.346-.07.155-.129.316-.212.463-.089.161-.179.33-.307.46a4.428 4.428 0 0 0-.611.814c-.104.17-.213.346-.354.485a2.93 2.93 0 0 0-.668 1.047 1.81 1.81 0 0 1-.273.478 7.018 7.018 0 0 0-.762 1.16 2.2 2.2 0 0 1-.306.463 5.564 5.564 0 0 0-.855 1.208 3.763 3.763 0 0 1-.291.474c-.334.453-.575.95-.771 1.474a2.96 2.96 0 0 1-.338.602c-.381.563-.776 1.117-1.159 1.679-.175.255-.333.52-.502.78-.178.271-.359.54-.54.81-.327.488-.593 1.018-1.002 1.448a1.25 1.25 0 0 0-.345.739c-.022.2-.114.3-.278.383-.123.062-.231.154-.35.226a.524.524 0 0 0-.244.375c-.079.42-.276.744-.716.879-.123.037-.238.123-.243.255-.012.303-.203.508-.358.736-.218.32-.417.653-.517 1.03-.084.318-.23.604-.399.884-.159.264-.285.547-.441.813-.1.171-.201.362-.352.477-.125.095-.208.202-.22.327-.036.365-.247.616-.486.866a4.551 4.551 0 0 0-.4.507c-.116.163-.212.34-.326.505-.185.267-.389.522-.566.794-.294.45-.559.92-.844 1.378-.218.35-.397.71-.67 1.035a3.361 3.361 0 0 0-.713 1.498c.129.184.191.427.432.522.317.126.575.372.924.435a.49.49 0 0 1 .203.108c.437.346.875.69 1.301 1.049a.96.96 0 0 1 .245.334c.102.223.266.379.472.494.182.103.332.23.426.415.074.145.197.225.339.3.317.164.631.342.874.608.19.207.387.38.657.494.236.101.433.295.647.447.139.099.272.205.416.295.262.166.54.309.794.486.229.159.467.234.743.198.108-.015.217-.04.324-.035.137.007.3.002.404.072.201.135.45.222.57.46.073.144.194.225.344.292.416.185.794.433 1.062.806.248.344.603.518.955.681.692-.26.535-.317 1.105-.027.045-.023.107-.04.151-.08.241-.218.469-.446.61-.75.199-.429.505-.788.89-1.051.251-.172.451-.361.612-.614a1.16 1.16 0 0 1 1.007-.569c.043 0 .086-.022.145-.038.015-.106.022-.213.046-.315.102-.437.336-.769.799-.871.42-.093.851-.207 1.243.1a.331.331 0 0 0 .13.051c.25.056.444.213.657.341.243.146.373.358.444.624.056.207.111.42.205.612.197.396.301.808.302 1.248 0 .372.058.736.151 1.097.054.207.088.425.089.638.001.257.066.483.19.705.293.523.42 1.091.434 1.687.005.2-.012.404.015.6.049.36.031.744.357 1.014.065.054.085.16.128.243.154.298.375.48.739.446.305-.028.583.06.839.227.089.058.195.125.294.128.451.01.791.248 1.13.498.086.064.179.12.275.167.25.125.5.248.754.364.169.077.338.166.517.207.503.113.939.406 1.444.513a.53.53 0 0 1 .205.108c.436.343.951.52 1.467.692.546.182 1.076.402 1.587.666.189.098.384.146.584.096.214-.052.395-.036.563.11a.438.438 0 0 0 .43.098c.094-.024.208.03.313.048.078.238.349.161.499.293.047.041.168 0 .281-.005-.012-.138-.012-.244-.032-.346-.026-.135-.051-.275-.105-.4a3.835 3.835 0 0 1-.334-1.712 2.06 2.06 0 0 0-.01-.324c-.017-.137-.024-.281-.075-.407a3.93 3.93 0 0 1-.289-1.116c-.01-.106-.054-.209-.079-.313-.064-.27-.141-.537-.185-.81-.031-.19-.082-.355-.236-.485a1.61 1.61 0 0 1-.59-1.352.6.6 0 0 0-.176-.46c-.382-.408-.587-.9-.669-1.449a2.57 2.57 0 0 0-.161-.576c-.137-.332-.243-.67-.256-1.028a1.295 1.295 0 0 0-.277-.766c-.226-.3-.389-.638-.431-1.012a2.493 2.493 0 0 0-.39-1.076 1.767 1.767 0 0 1-.268-1.014c.005-.262-.004-.524-.006-.786-.003-.309-.012-.617-.004-.926.012-.53.312-.895.743-1.15.346-.203.723-.357 1.087-.53.256-.122.526-.179.812-.177.233 0 .467-.009.7-.027.309-.024.617-.08.926-.089a4.137 4.137 0 0 0 1.231-.234c.161-.056.328-.114.495-.124.332-.02.597-.15.816-.389.16-.174.347-.316.574-.386.271-.083.521-.183.714-.407.076-.087.208-.138.324-.174a.816.816 0 0 0 .373-.26c.187-.206.395-.392.585-.594.094-.1.195-.207.244-.33a1.84 1.84 0 0 1 .513-.706c.178-.157.314-.343.393-.566.212-.6.512-1.154.875-1.677.242-.348.401-.72.397-1.156-.004-.399.056-.803-.205-1.155a.202.202 0 0 1-.034-.085c-.059-.345-.184-.696.175-.976.089-.07.136-.192.114-.333-.083-.517-.093-1.04-.197-1.557a8.007 8.007 0 0 0-.304-1.114 85.505 85.505 0 0 0-.389-1.089c-.037-.1-.08-.202-.139-.292a4.508 4.508 0 0 1-.568-1.162c-.026-.087-.08-.166-.119-.25-.096-.21-.195-.42-.286-.633-.207-.485-.568-.877-.813-1.339-.021-.039-.062-.07-.098-.098-.243-.2-.417-.456-.608-.7a2.858 2.858 0 0 0-.477-.502 2.47 2.47 0 0 1-.767-.973.751.751 0 0 0-.222-.285c-.247-.187-.496-.377-.767-.522-.392-.211-.702-.506-.996-.828a1.332 1.332 0 0 0-.317-.266 4.137 4.137 0 0 1-.85-.645 1.39 1.39 0 0 0-.455-.315 1.939 1.939 0 0 1-.808-.61 1.042 1.042 0 0 0-.485-.341 2.021 2.021 0 0 1-.914-.695c-.055-.072-.118-.14-.165-.195l-.206-.053c-.274-.066-.56-.141-.752-.347a2.21 2.21 0 0 0-.973-.6.493.493 0 0 1-.205-.108c-.349-.364-.819-.55-1.225-.831a13.807 13.807 0 0 0-.504-.33c-.144-.091-.298-.168-.437-.266-.245-.17-.481-.281-.812-.26-.5.034-.95-.14-1.245-.587a.508.508 0 0 0-.166-.158c-.484-.278-.977-.544-1.507-.724-.316-.107-.599-.248-.839-.48-.098-.095-.218-.208-.341-.228-.317-.05-.576-.23-.873-.32a1.475 1.475 0 0 1-.636-.372c-.062-.062-.145-.103-.212-.15Zm12.994 49.66c-.489.156-.881.089-1.233-.2a.793.793 0 0 0-.197-.12c-.944-.396-1.875-.825-2.851-1.146-.265-.087-.521-.195-.735-.39-.086-.08-.216-.114-.33-.158-.087-.032-.192-.027-.269-.071-.409-.233-.863-.345-1.301-.5a2.224 2.224 0 0 1-.373-.188c-.216-.126-.433-.239-.682-.29a.936.936 0 0 1-.521-.291c-.153-.175-.349-.25-.57-.284-.061-.01-.132-.007-.182-.037-.381-.236-.811-.279-1.243-.329-.351-.041-.643-.21-.897-.455-.222-.215-.467-.406-.579-.712a.607.607 0 0 0-.175-.212c-.284-.253-.406-.579-.436-.944-.051-.598-.16-1.192-.147-1.796a1.216 1.216 0 0 0-.165-.619c-.053-.094-.101-.191-.15-.288a2.388 2.388 0 0 1-.282-1.157 2.137 2.137 0 0 0-.118-.774c-.11-.31-.121-.636-.13-.96a1.673 1.673 0 0 0-.176-.756c-.071-.136-.1-.292-.164-.433-.042-.093-.112-.174-.157-.242-.365-.018-.621.306-.975.161-.058.118-.142.21-.146.308-.018.35-.252.587-.421.856-.168.268-.418.447-.693.605-.231.133-.389.35-.507.59a3.376 3.376 0 0 1-.993 1.205c-.099.076-.194.154-.291.232-.135.11-.258.218-.229.423.016.12-.082.203-.181.247-.356.156-.712.291-1.113.115-.166-.074-.36-.087-.543-.12a1.7 1.7 0 0 1-.713-.326 7.966 7.966 0 0 0-.735-.486c-.313-.181-.598-.389-.815-.68-.188-.255-.417-.45-.737-.535-.314-.082-.53-.31-.741-.578-.147 0-.3.003-.454 0a1.925 1.925 0 0 1-1.123-.394c-.263-.191-.546-.354-.827-.518-.268-.157-.536-.307-.76-.532a1.053 1.053 0 0 0-.399-.221 1.46 1.46 0 0 1-.708-.505c-.21-.278-.467-.493-.806-.603a1.094 1.094 0 0 1-.688-.585.626.626 0 0 0-.326-.315 1.058 1.058 0 0 1-.539-.554c-.114-.249-.3-.428-.508-.593-.17-.135-.338-.273-.508-.407-.061-.048-.121-.106-.192-.129-.492-.161-.9-.488-1.375-.68a.77.77 0 0 1-.392-.377c-.087-.162-.205-.307-.294-.468-.089-.16-.198-.325-.23-.5-.077-.427-.098-.863.022-1.286.227-.795.573-1.53 1.129-2.158a1.73 1.73 0 0 0 .184-.264c.15-.251.285-.512.446-.756.161-.245.31-.494.455-.749.205-.362.462-.694.695-1.04.112-.167.217-.338.328-.505.102-.154.198-.315.316-.458.255-.31.525-.606.782-.914a.88.88 0 0 0 .161-.274c.174-.515.413-.997.71-1.453.1-.154.185-.327.232-.502.143-.531.399-1.003.721-1.443.129-.177.218-.357.238-.588.033-.375.3-.606.623-.747.224-.098.389-.25.543-.422a.452.452 0 0 0 .116-.194c.109-.52.441-.913.751-1.316.291-.38.599-.744.858-1.152a103.086 103.086 0 0 1 2.194-3.33c.327-.473.645-.936.835-1.484.089-.258.257-.49.401-.728.135-.226.297-.436.423-.665.277-.504.591-.979.979-1.406.102-.112.166-.259.251-.388.253-.387.51-.773.762-1.161.083-.13.17-.26.228-.4a3.88 3.88 0 0 1 .799-1.24c.117-.12.198-.274.298-.411.201-.275.389-.56.608-.818.269-.318.448-.664.459-1.083a.792.792 0 0 1 .232-.535 42.39 42.39 0 0 0 1.247-1.434c.168-.202.314-.424.442-.652.161-.283.382-.479.688-.591.38-.14.755-.29 1.177-.195.246.055.48.122.686.274.249.185.513.346.799.468.099.042.2.096.304.106.395.036.699.247.978.494.166.147.342.251.547.337.414.174.818.375 1.215.584.32.17.641.312 1.011.313.194 0 .351.08.511.19a17.5 17.5 0 0 0 1.736 1.078l.04.024c.391.249.784.496 1.174.747.117.076.223.169.339.244.115.075.231.163.359.2.355.103.644.306.903.552.13.124.265.194.445.22.386.058.692.271.922.574.183.24.386.422.679.534.271.105.525.267.712.506.154.197.338.35.574.458.208.095.413.228.574.388.29.288.621.514.964.724.148.091.273.197.382.332.195.241.419.448.69.613.344.21.66.463 1.001.676.208.131.36.295.44.52.125.348.35.605.645.828.193.147.352.347.502.541.189.246.372.495.609.698.18.154.301.35.414.554.104.188.231.364.346.546.09.143.195.28.263.434.218.494.419.994.633 1.49.061.14.13.28.214.409.23.352.396.728.515 1.133.126.428.297.844.448 1.265.12.335.21.677.243 1.033.017.184.069.364.095.547.036.243.059.488.092.732.029.214.054.428.099.639.091.427.122.852.016 1.28a.615.615 0 0 0-.021.276c.073.316-.077.642.048.955a.228.228 0 0 1-.001.137c-.162.56-.137 1.164-.423 1.694a.71.71 0 0 0-.074.265.404.404 0 0 1-.261.35c-.228.101-.344.303-.434.52-.124.297-.221.608-.365.896-.138.274-.292.549-.542.744a1.125 1.125 0 0 0-.358.473 1.86 1.86 0 0 1-.601.752c-.193.15-.352.347-.506.538-.167.208-.329.406-.602.488a.51.51 0 0 0-.248.194c-.131.192-.312.292-.524.362-.133.043-.257.115-.392.15-.17.043-.302.135-.446.229-.271.175-.566.32-.865.447-.298.125-.602.232-.936.265-.273.026-.54.136-.806.22-.422.134-.861.112-1.293.159-.463.05-.928.079-1.393.111-.145.01-.275.04-.384.142-.044.042-.095.095-.15.106-.331.062-.34.291-.333.559.013.487.152.946.321 1.391.121.321.217.643.257.98.024.206.087.39.218.551.377.463.531 1.003.568 1.586.009.137.022.283.076.407.153.358.242.733.314 1.111.036.188.099.359.234.494.461.467.668 1.03.649 1.676.046.056.078.111.124.15.37.3.546.706.616 1.16.058.382.158.753.251 1.127.101.403.171.81.314 1.205.137.38.183.78.164 1.185-.019.393.078.754.213 1.124.277.764.369 1.556.185 2.364a.647.647 0 0 1-.273.41c-.439.31-.908.525-1.461.525-.153 0-.308.068-.459.059-.312-.019-.623-.064-.828-.365Zm-34.65-61.202c-.114.04-.192.052-.251.092a.509.509 0 0 0-.157.168c-.154.274-.389.429-.687.515-.118.034-.225.103-.336.16-.248.125-.499.247-.743.382-.133.073-.278.149-.376.26-.253.289-.553.49-.923.596-.119.034-.23.105-.35.127-.214.04-.363.163-.497.32-.227.264-.499.46-.842.555a6.187 6.187 0 0 0-.573.19c-.127.05-.25.116-.367.188-.132.081-.249.185-.381.265a5.918 5.918 0 0 0-.846.653 3.85 3.85 0 0 1-.639.46c-.2.115-.421.2-.642.274-.436.147-.825.365-1.137.7-.361.389-.82.616-1.313.763-.3.09-.527.23-.717.473a2.184 2.184 0 0 1-1.051.74c-.265.087-.525.19-.785.293-.1.04-.202.087-.285.153-.359.282-.763.473-1.19.626-.194.069-.35.183-.493.336-.371.4-.795.738-1.314.939-.177.069-.32.18-.453.314-.449.454-.929.87-1.504 1.162a1.208 1.208 0 0 0-.393.32c-.294.355-.671.592-1.099.757-.116.045-.23.095-.348.135-.287.098-.511.277-.727.486-.3.29-.607.579-.943.825-.388.283-.81.518-1.116.9-.019.023-.047.04-.072.058-.828.605-1.589 1.29-2.367 1.954a2.61 2.61 0 0 1-.448.332c-.319.172-.586.4-.845.648-.336.323-.696.618-1.157.758-.201.061-.352.196-.479.356a2.56 2.56 0 0 1-1.189.862.876.876 0 0 0-.489.404 3.37 3.37 0 0 1-1.13 1.148c-.141.088-.272.21-.368.344-.175.245-.4.422-.637.602-.469.355-.917.738-1.37 1.113-.227.188-.442.387-.671.571-.099.08-.195.148-.195.293.001.14-.084.226-.209.276-.3.12-.48.367-.711.627.406.164.738.389 1.12.532.392.148.766.34 1.188.396.331.043.625.168.907.343.168.105.358.201.55.237.558.104 1.015.38 1.419.755.152.141.32.242.518.298.506.143.928.423 1.311.774.101.092.215.183.34.237.402.172.78.38 1.13.642a.483.483 0 0 0 .254.1c.343.008.682-.004.995-.185.281-.164.574-.31.867-.452.227-.11.431-.242.591-.44a1.47 1.47 0 0 1 .635-.458c.252-.094.452-.255.658-.426.494-.409 1.061-.536 1.695-.327l.47-.172c.128-.048.269-.025.351.054.154.149.397.183.495.407.031.07.14.114.22.156.29.151.58.3.874.44.139.067.285.128.435.162.309.07.583.208.845.38.168.11.337.23.523.3.34.124.642.306.94.504.113.076.244.15.376.172.415.068.754.278 1.086.51.153.106.295.23.454.325a.758.758 0 0 1 .347.474c.079.282.147.565.153.863.005.292.035.584.061.876.041.46.089.92.131 1.381.066.71.502 1.173 1.059 1.549.178.12.384.202.569.314a.902.902 0 0 0 .48.152c.413 0 .797.118 1.166.293.601.285 1.251.475 1.787.89.012.01.028.015.042.02.365.143.691.352 1.009.576a.812.812 0 0 0 .38.161c.252.03.475.14.681.284.179.124.36.244.532.376.101.078.199.145.334.138.239-.014.459.063.681.137.344.115.567.017.685-.33a8.215 8.215 0 0 0 .389-1.57c.02-.152.025-.31.071-.455.122-.39.14-.785.143-1.188a2.19 2.19 0 0 1 .118-.725c.061-.169.096-.316.05-.487a2.154 2.154 0 0 1-.056-.32c-.058-.566-.148-1.132.091-1.687.052-.121.041-.273.044-.41.01-.324.008-.649.015-.973.01-.438.093-.857.322-1.24.137-.232.194-.486.205-.753.006-.139.013-.277.021-.416.034-.649.121-1.29.316-1.912.06-.191.119-.387.139-.584.059-.568.097-1.138.145-1.707.052-.599.1-1.199.161-1.797.08-.783.176-1.564.256-2.347.053-.521.096-1.044.13-1.567.031-.493.033-.988.07-1.48.027-.353.085-.704.141-1.054.102-.64.244-1.274.312-1.917.079-.74.178-1.47.457-2.166.093-.232.13-.474.127-.724-.004-.324-.005-.649.005-.973.021-.666.104-1.323.372-1.943.088-.205.107-.418.106-.635 0-.293-.014-.586-.006-.88.009-.386.027-.781.211-1.128.149-.28.15-.555.123-.852-.034-.368-.047-.738-.068-1.107a1.298 1.298 0 0 1 .129-.675c.095-.186.115-.38.107-.584-.019-.478-.06-.955.012-1.433a.602.602 0 0 0-.006-.184c-.055-.318-.113-.636-.181-1.018ZM163.92 51.187a1.867 1.867 0 0 0-.954-.51c-.293-.062-.544-.22-.79-.388-.152-.103-.321-.18-.484-.269-.245-.132-.498-.252-.734-.4a2.21 2.21 0 0 0-.585-.274 4.579 4.579 0 0 1-.652-.249c-.395-.18-.787-.37-1.175-.564-.179-.09-.347-.201-.532-.31-.075.017-.166.058-.254.053-.206-.012-.344.107-.503.204-.224.137-.482.221-.695.372-.212.15-.385.356-.577.535a.474.474 0 0 1-.115.078c-.711.348-1.384.77-2.133 1.04-.526.191-1.063.213-1.609.144a1.185 1.185 0 0 1-.668-.306 2.878 2.878 0 0 0-.953-.568 2.335 2.335 0 0 1-.84-.57 1.313 1.313 0 0 0-.588-.36 2.748 2.748 0 0 1-1.271-.743.947.947 0 0 0-.53-.27c-.358-.066-.677-.22-.988-.4a1.424 1.424 0 0 0-.47-.187c-.718-.114-1.358-.437-2.011-.722-.355-.155-.696-.346-1.056-.488-.821-.324-.966-1.197-.815-1.773.097-.372.36-.68.632-.959.14-.144.29-.28.435-.42.166-.159.338-.304.431-.534.067-.166.24-.27.405-.368.172-.1.336-.222.48-.359a14.61 14.61 0 0 1 1.61-1.333c.111-.08.213-.178.299-.284.225-.28.469-.534.786-.715.277-.158.488-.384.641-.658.26-.466.632-.794 1.143-.966.256-.086.469-.232.64-.445.307-.38.674-.667 1.152-.831.225-.077.425-.256.604-.422.33-.308.681-.578 1.06-.828.386-.254.724-.58 1.084-.874l1.586-1.292c.012-.01.027-.017.037-.029.361-.436.846-.717 1.299-1.043.312-.225.591-.5.866-.772.328-.322.705-.56 1.141-.697.383-.12.703-.32.957-.63a1.5 1.5 0 0 1 .505-.402c.537-.266.987-.644 1.394-1.073.197-.208.422-.362.686-.465a2.532 2.532 0 0 0 1.044-.757c.236-.286.531-.472.88-.579.347-.105.658-.271.945-.49.35-.268.753-.436 1.178-.541.318-.078.57-.23.762-.492.355-.483.834-.78 1.423-.898a1.13 1.13 0 0 0 .565-.302c.125-.116.256-.225.383-.34a3.515 3.515 0 0 1 1.292-.72 2.462 2.462 0 0 0 1.024-.62c.162-.163.356-.297.542-.436.247-.186.504-.36.751-.546.278-.21.592-.345.931-.403a1.11 1.11 0 0 0 .703-.41c.256-.314.616-.47.993-.572.297-.08.541-.213.738-.448a1.34 1.34 0 0 1 .579-.378c.264-.097.523-.198.733-.393a.265.265 0 0 1 .078-.05c.336-.135.631-.327.85-.62.496-.314.969-.677 1.614-.627.238.02.461.064.666.184.107.063.204.145.315.197.42.198.564.566.589.981.026.449.1.888.179 1.328.03.165.039.341.017.507-.057.448-.028.894-.008 1.34.019.437-.021.86-.188 1.269-.092.224-.049.456-.031.686.021.276.056.552.07.83.02.39-.037.769-.23 1.118-.116.21-.133.441-.134.674 0 .216.015.431.019.647.01.5-.066.988-.254 1.45-.154.38-.219.77-.232 1.172-.009.293-.008.586-.005.88a4.31 4.31 0 0 1-.284 1.63 4.264 4.264 0 0 0-.279 1.261c-.051.725-.173 1.44-.327 2.148a7.909 7.909 0 0 0-.182 1.606c-.009 1.005-.11 2.001-.233 2.996a101.15 101.15 0 0 0-.292 2.575c-.058.598-.067 1.201-.128 1.799-.054.52-.045 1.049-.174 1.562-.038.15-.06.304-.112.449-.174.486-.222.99-.255 1.5-.02.323-.052.645-.093.966a2.174 2.174 0 0 1-.277.83 1.335 1.335 0 0 0-.181.753c.007.2-.01.402-.001.602.018.373-.026.742-.129 1.097a1.566 1.566 0 0 0-.018.775c.031.151.059.303.098.453.111.435.07.856-.129 1.257a.853.853 0 0 0-.071.45c.026.408-.062.796-.16 1.187-.048.193-.06.395-.098.591a14.61 14.61 0 0 1-.6 2.23c-.108.296-.26.512-.587.596-.39.1-.768.243-1.157.344-.263.069-.529.002-.778-.085a1.96 1.96 0 0 0-.636-.117 1.372 1.372 0 0 1-1-.43c-.22-.225-.466-.393-.796-.444-.262-.04-.492-.185-.706-.344a3.481 3.481 0 0 0-.805-.463 1.332 1.332 0 0 1-.327-.175c-.5-.388-1.118-.533-1.674-.805-.105-.052-.241-.048-.365-.058-.457-.036-.885-.15-1.271-.409a1.91 1.91 0 0 0-.42-.192c-.239-.086-.451-.203-.607-.41a1.014 1.014 0 0 0-.19-.204c-.684-.523-.957-1.269-1.144-2.062a2.647 2.647 0 0 1-.057-.365c-.077-.798-.151-1.596-.227-2.411Zm-54.819-34.41c.014.666.026 1.298.041 1.93a.799.799 0 0 0 .018.137 7.6 7.6 0 0 1 .148 1.703c-.006.465.042.923.147 1.377.034.149.053.305.057.458.009.339.009.678.003 1.018-.009.54-.014 1.076.148 1.605.075.246.079.516.098.777.017.23.019.463.011.694-.013.392.065.762.206 1.129.177.463.288.944.271 1.446a4 4 0 0 0 .174 1.37c.028.088.046.18.062.27.103.579.198 1.157.079 1.746-.03.15-.02.307-.026.461-.017.4.06.801-.024 1.2a.292.292 0 0 0 .011.137c.112.393.074.797.089 1.196.012.309-.014.625.049.923.121.58.143 1.162.14 1.749-.002.326.041.643.111.962.055.255.094.517.102.777.032 1.064.05 2.128.071 3.193.005.218.003.429.209.582.066.05.1.154.129.24.076.219.128.442.124.678-.006.293.002.587.015.88.009.207.159.34.361.338.031 0 .061-.01.092-.013.248-.022.495-.052.743-.064a4.168 4.168 0 0 1 1.997.376c.467.22.931.203 1.404.108.277-.055.545-.1.83-.06.198.027.403.007.605.007.14 0 .284-.024.419.001.387.073.775.052 1.164.048.233-.003.466.01.699.013.404.006.803-.01 1.205-.088.609-.119 1.219-.257 1.847-.234.341.013.682.037 1.023.057.108.007.217.026.325.022.746-.028 1.49-.015 2.237.017.916.04 1.836.015 2.754.007.2-.002.404-.029.599-.074.65-.151 1.292-.327 1.973-.304.291.01.586-.05.877-.09a.722.722 0 0 0 .255-.103c.601-.353 1.204-.703 1.797-1.07.237-.145.472-.306.669-.498.242-.236.459-.502.658-.775a3.7 3.7 0 0 0 .418-.72c.22-.514.525-.972.853-1.42.154-.212.256-.459.391-.684a.925.925 0 0 0 .126-.438c.013-.245.043-.49.07-.735.038-.337.111-.674.112-1.011.002-.876.032-1.755-.25-2.61-.115-.35-.16-.722-.22-1.087a3.194 3.194 0 0 0-.485-1.241c-.136-.208-.279-.408-.364-.643a.817.817 0 0 0-.344-.424c-.25-.157-.507-.303-.746-.472-.316-.223-.635-.447-.919-.706-.195-.178-.363-.378-.608-.494a.588.588 0 0 1-.181-.144c-.17-.192-.366-.325-.632-.355a.603.603 0 0 1-.299-.121c-.311-.255-.719-.342-1.024-.619-.131-.12-.253-.224-.296-.39-.178-.688-.073-.923.42-1.284.111-.081.243-.136.366-.202.177-.096.353-.194.533-.284.309-.155.546-.408.826-.599.393-.267.647-.663.981-.982.042-.04.061-.107.084-.164.139-.347.347-.654.563-.956a1.62 1.62 0 0 0 .199-.362c.173-.462.333-.93.5-1.394.163-.454.297-.922.243-1.403-.06-.534.111-1.036.143-1.555.181-.322.072-.665.072-.999a.6.6 0 0 0-.171-.418c-.33-.359-.551-.78-.724-1.231a1.731 1.731 0 0 0-.245-.444c-.286-.365-.585-.72-.888-1.072-.067-.078-.165-.164-.259-.178-.266-.04-.447-.192-.621-.373-.085-.089-.191-.157-.282-.24-.16-.145-.316-.293-.471-.442-.19-.18-.355-.397-.571-.537-.483-.312-.999-.572-1.568-.697a7.697 7.697 0 0 1-1.413-.47 3.954 3.954 0 0 0-1.075-.298c-.354-.046-.709-.092-1.064-.136-1.251-.158-2.506-.267-3.768-.23-.887.026-1.773.058-2.659.097-.59.026-1.182.042-1.768.113-.885.108-1.768.113-2.654.033-.701-.063-1.399.018-2.097.05-.341.016-.679.09-1.019.106-.653.031-1.306.037-1.959.062-.153.006-.318.016-.454.075a3.379 3.379 0 0 1-1.397.307c-.014 0-.028.014-.041.022-.296.485-.297.49-.173.99.011.044.018.09.031.134.149.481.147.975.117 1.468-.012.22-.019.427.096.623a.27.27 0 0 1 .006.264.547.547 0 0 0-.059.263c.014.151-.067.228-.177.295-.051.032-.107.056-.201.104Zm25.278 11.436c.073.064.127.116.185.163.168.136.335.272.507.404.135.104.277.199.411.304.121.095.254.184.35.301.199.245.45.425.708.597.335.224.672.447 1.014.66.26.163.446.385.569.657.115.255.272.483.409.723.307.537.572 1.098.671 1.716.085.534.184 1.062.359 1.577.079.229.088.482.119.726.084.66.081 1.323.085 1.987.001.183-.026.368-.044.551-.05.49-.114.98-.15 1.471-.034.452-.104.884-.382 1.262-.1.136-.174.293-.248.445-.096.196-.21.377-.361.536-.085.089-.184.186-.219.297-.157.509-.528.904-.731 1.386a1.319 1.319 0 0 1-.442.586c-.025.018-.052.036-.07.06-.261.353-.594.628-.963.862-.182.115-.362.235-.544.351-.026.017-.061.021-.084.04-.473.383-1.048.601-1.543.949-.414.29-.874.45-1.39.468-.497.017-.993.064-1.487.121a4.338 4.338 0 0 0-.818.173c-.498.16-1.008.173-1.522.184-.996.02-1.99 0-2.985-.054-.481-.026-.965.007-1.447 0-.279-.004-.557-.046-.836-.05-.404-.008-.809-.02-1.21.014a6.844 6.844 0 0 0-1.103.19c-.444.114-.891.122-1.343.118-.326-.002-.653.002-.979-.008-.279-.008-.558-.033-.837-.048a15.53 15.53 0 0 0-.512-.021c-.249-.006-.498-.004-.747-.011-.187-.005-.369.002-.549.076a.958.958 0 0 1-.503.053c-.184-.025-.373-.02-.559-.016a1.816 1.816 0 0 1-.897-.206 2.788 2.788 0 0 0-1.714-.307 8.339 8.339 0 0 1-.741.076 1.051 1.051 0 0 1-.414-.04 10.4 10.4 0 0 1-.973-.425c-.086-.043-.146-.158-.195-.252a2.923 2.923 0 0 1-.345-1.239c-.006-.139-.008-.278-.01-.416a.907.907 0 0 0-.102-.444c-.081-.145-.115-.316-.17-.476-.193-.564-.201-1.15-.209-1.737-.011-.864-.034-1.728-.061-2.592-.006-.198-.051-.396-.076-.594-.045-.351-.112-.701-.127-1.054-.027-.616-.008-1.234-.159-1.84-.033-.133-.024-.276-.027-.415-.011-.586-.013-1.173-.029-1.759-.013-.508-.045-1.017-.06-1.525a2.79 2.79 0 0 1 .03-.6c.085-.438.032-.864-.086-1.281a5.852 5.852 0 0 1-.231-1.783 2.002 2.002 0 0 0-.149-.813 4.594 4.594 0 0 1-.331-1.81 6.367 6.367 0 0 0-.016-.648c-.016-.198-.031-.402-.09-.591a3.527 3.527 0 0 1-.15-1.05c0-.247-.018-.494-.004-.74a7.467 7.467 0 0 0-.136-1.887c-.051-.255-.055-.521-.059-.783-.008-.602-.021-1.203-.147-1.796a.799.799 0 0 1-.017-.137c-.033-1.265-.122-2.53-.002-3.793.012-.126.025-.255.135-.333.175-.125.171-.301.107-.456-.156-.381-.149-.787-.218-1.18-.024-.136-.021-.277-.025-.415a.742.742 0 0 1 .17-.517.843.843 0 0 0 .208-.456c.017-.16.111-.283.222-.397a1.627 1.627 0 0 1 1.157-.52c.124-.003.249-.01.373-.005.269.012.524-.032.773-.137.406-.17.832-.24 1.275-.235.404.005.809-.014 1.214-.015a8.818 8.818 0 0 0 1.532-.129c.288-.051.589-.029.884-.046a12.833 12.833 0 0 1 1.912.035c.64.058 1.274.01 1.908-.07a7.44 7.44 0 0 1 .649-.055c1.089-.04 2.177-.07 3.265-.111.326-.012.651-.064.977-.065.372-.001.744.033 1.116.053.124.007.249.022.373.022.764.005 1.519.112 2.274.216.369.051.739.096 1.107.156.415.068.817.189 1.204.356.4.172.811.308 1.235.413.934.233 1.769.674 2.53 1.251.158.12.295.275.414.434.155.207.327.363.59.42.25.053.428.24.626.385.099.072.186.165.266.259.37.437.748.869 1.096 1.322.167.218.297.472.402.726.137.332.297.64.54.91.377.42.559.924.569 1.483.007.372.044.737.137 1.099.037.144.038.306.019.455-.045.363-.11.724-.167 1.086-.008.045 0 .105-.027.132-.182.187-.145.428-.179.653-.103.672-.251 1.333-.518 1.964a6.95 6.95 0 0 0-.283.832 1.79 1.79 0 0 1-.304.619 4.424 4.424 0 0 0-.583.998 1.265 1.265 0 0 1-.226.343c-.256.29-.52.573-.785.855-.074.078-.152.162-.245.21-.296.152-.508.402-.781.612ZM50.083 77.7c.087-.025.15-.032.204-.06.455-.233.925-.444 1.269-.844.07-.08.16-.146.243-.215.322-.267.642-.537.968-.798.875-.701 1.668-1.478 2.339-2.378.107-.144.271-.25.418-.361.209-.16.425-.31.64-.463.34-.243.682-.485 1.023-.727.139-.098.288-.185.414-.299.391-.352.793-.695 1.153-1.077a7.35 7.35 0 0 1 1.199-1.024c.204-.14.398-.295.592-.45a1.27 1.27 0 0 0 .23-.228c.311-.422.69-.792.97-1.24.097-.156.242-.282.36-.424.09-.107.192-.209.253-.33.274-.548.691-.991 1.099-1.431.367-.398.744-.788 1.082-1.211.25-.313.476-.648.704-.978.051-.073.07-.17.102-.256.103-.29.21-.58.307-.872a5.25 5.25 0 0 0 .148-.533c.128-.589.148-1.193.242-1.786.093-.587.084-1.166.04-1.752a3.83 3.83 0 0 0-.215-.992c-.098-.276-.187-.555-.276-.834-.104-.326-.242-.633-.466-.9-.15-.177-.301-.355-.425-.55-.232-.367-.465-.729-.82-.998-.097-.073-.165-.184-.248-.275-.084-.091-.165-.187-.258-.267a33.337 33.337 0 0 0-.823-.68c-.108-.087-.229-.159-.346-.233-.118-.074-.25-.131-.358-.217-.478-.378-1.013-.657-1.563-.913a1.332 1.332 0 0 0-.581-.147c-.42.003-.84.008-1.26.006-.873-.003-1.742.02-2.588.276-.23.07-.463.035-.694-.004a.599.599 0 0 1-.503-.422 1.544 1.544 0 0 1-.03-.954c.102-.346.144-.693.12-1.05-.03-.478-.048-.956-.083-1.433a5.323 5.323 0 0 0-.262-1.312c-.142-.424-.261-.859-.438-1.268a5.8 5.8 0 0 0-.55-.959c-.114-.166-.239-.32-.321-.505a1.085 1.085 0 0 0-.444-.521.705.705 0 0 1-.262-.248.807.807 0 0 0-.286-.293c-.22-.145-.444-.285-.657-.44-.562-.408-1.196-.644-1.866-.806a6.292 6.292 0 0 1-.759-.224 3.474 3.474 0 0 0-.995-.226c-.575-.042-1.147-.095-1.708-.238-.09-.023-.185-.022-.277-.034-.822-.107-1.646-.086-2.47-.05-.184.01-.367.06-.549.1-.363.08-.727.16-1.088.252a5.6 5.6 0 0 0-.62.197c-.332.128-.654.292-.993.397-.258.08-.49.194-.71.34-.245.162-.487.33-.74.483-.22.133-.385.295-.471.547a1.11 1.11 0 0 1-.73.723c-.43.149-.795.41-1.122.73-.243.238-.505.459-.771.672-.447.359-.916.692-1.297 1.126-.07.08-.156.152-.246.212-.367.245-.637.584-.926.907-.475.53-.952 1.061-1.464 1.556-.291.282-.576.562-.798.899-.166.25-.397.432-.627.616-.23.184-.457.371-.689.553-.632.495-1.06 1.168-1.546 1.786-.305.388-.61.775-.942 1.14-.207.226-.253.453-.107.714.187.335.34.698.749.846.112.041.2.143.306.205.13.076.2.178.238.324.068.264.132.534.43.665.092.04.156.148.224.233.31.386.613.777.925 1.161.126.156.256.311.403.446.296.272.604.531.909.794.422.364.84.732 1.269 1.089.29.242.521.53.698.86.222.414.53.753.882 1.065.498.443.998.888 1.443 1.38.376.415.764.81 1.197 1.164.277.227.523.48.725.78.111.164.252.314.402.446.327.289.61.612.869.963.505.685 1.016 1.368 1.645 1.95a19.966 19.966 0 0 0 1.901 1.565c.71.51 1.267 1.181 1.868 1.804.053.055.087.128.135.188.32.398.636.799.963 1.191.189.227.415.414.676.562.351.2.702.41.962.724.317.383.68.72 1.037 1.064.188.182.353.39.524.589.08.094.149.198.23.292.145.17.321.278.553.308.43.055.745.267.89.691.013.042.048.077.096.149ZM27.15 56.93c-.128-.024-.235-.036-.337-.066-.138-.04-.267-.113-.311-.256-.06-.195-.2-.297-.364-.398a.754.754 0 0 1-.257-.26 27.122 27.122 0 0 1-.577-1.106c-.09-.18-.14-.375-.14-.58-.002-.262-.02-.525-.005-.787.02-.379.148-.722.404-1.012.645-.731 1.23-1.51 1.835-2.274.425-.538.948-.979 1.49-1.394.262-.2.497-.411.681-.688a3.09 3.09 0 0 1 .484-.562c.722-.661 1.371-1.388 2.01-2.124.102-.117.194-.25.318-.339.657-.472 1.164-1.113 1.83-1.576a6.88 6.88 0 0 0 .851-.72 4.516 4.516 0 0 1 1.29-.901c.085-.038.165-.085.255-.132.19-.536.573-.902 1.063-1.177.19-.106.368-.231.544-.358a4.83 4.83 0 0 1 1.501-.728c.222-.063.44-.155.646-.258.422-.21.86-.35 1.326-.423.306-.048.608-.13.906-.218a3.37 3.37 0 0 1 1.009-.152c.591.009 1.183-.02 1.773.012.464.025.924.116 1.386.176.292.038.584.08.877.108.606.056 1.206.123 1.774.363.184.078.383.128.58.171a7.243 7.243 0 0 1 2.428 1.032c.298.196.58.416.885.601.298.18.52.437.77.666a.767.767 0 0 1 .172.218c.235.47.568.88.812 1.344.057.11.134.208.192.317.087.163.181.325.244.498.137.377.25.762.384 1.14.38 1.075.509 2.19.554 3.32.011.275-.005.552.04.851.223-.022.418-.054.614-.06.778-.026 1.556-.052 2.334-.06a3.662 3.662 0 0 1 1.752.393c.57.29 1.118.602 1.637.972.163.116.35.201.515.315.191.132.372.278.554.422.205.164.42.321.607.504.409.4.838.786 1.193 1.229.317.396.586.833.903 1.234.263.332.401.729.534 1.125l.326.965c.23.678.336 1.378.37 2.09.023.509.03 1.016-.07 1.521-.052.256-.048.522-.085.781-.12.838-.183 1.689-.552 2.472a.617.617 0 0 0-.048.13c-.18.83-.7 1.465-1.228 2.093-.33.39-.673.766-1.023 1.139-.358.38-.729.761-.947 1.253-.061.136-.181.248-.28.365-.11.13-.247.241-.338.382-.306.467-.681.879-1.024 1.316-.183.233-.39.436-.639.603-.334.225-.65.476-.975.716a1.14 1.14 0 0 0-.107.089c-.459.437-.923.869-1.374 1.314a5.063 5.063 0 0 1-.945.748c-.278.168-.531.375-.794.566-.05.036-.091.087-.144.118-.694.415-1.17 1.046-1.674 1.651-.197.236-.43.448-.664.649-.648.554-1.31 1.092-1.958 1.645-.27.23-.5.503-.812.691-.492.298-1 .56-1.542.754-.247.088-.488.033-.72-.063a.897.897 0 0 0-.446-.076c-.366.033-.668-.138-.878-.425a1.42 1.42 0 0 0-.617-.471c-.324-.14-.564-.385-.768-.66a7.654 7.654 0 0 0-1.009-1.088 5.307 5.307 0 0 1-.48-.505c-.22-.264-.466-.5-.774-.658-.537-.277-.953-.685-1.316-1.156-.284-.368-.574-.73-.862-1.094a2.183 2.183 0 0 0-.151-.176c-.38-.387-.758-.776-1.143-1.156a2.978 2.978 0 0 0-.398-.32c-.716-.496-1.372-1.065-2.016-1.647-.426-.387-.79-.83-1.14-1.284-.237-.306-.457-.625-.703-.924-.186-.225-.402-.427-.602-.641-.18-.192-.376-.372-.53-.582a3.754 3.754 0 0 0-.597-.646 12.476 12.476 0 0 1-1.327-1.296c-.426-.487-.929-.91-1.415-1.342-.34-.302-.662-.62-.865-1.023-.274-.543-.724-.919-1.163-1.31-.266-.236-.548-.455-.82-.686-.295-.25-.59-.5-.876-.76a4.256 4.256 0 0 1-.405-.445c-.354-.43-.703-.864-1.05-1.3a2.18 2.18 0 0 1-.229-.346c-.056-.108-.087-.23-.14-.373Zm76.36-11.646c-.026-.347-.141-.6-.406-.778a1.291 1.291 0 0 1-.473-.614c-.05-.126-.14-.236-.219-.349-.16-.226-.324-.45-.489-.674-.091-.123-.173-.258-.284-.361-.284-.266-.552-.543-.747-.883a.683.683 0 0 0-.145-.18c-.347-.293-.613-.656-.887-1.01a1.848 1.848 0 0 0-.512-.468 1.824 1.824 0 0 1-.707-.78 2.647 2.647 0 0 0-.134-.245c-.156-.247-.306-.5-.477-.737-.27-.377-.558-.74-.83-1.117-.12-.167-.25-.312-.441-.4-.373-.171-.68-.43-.97-.713a13.593 13.593 0 0 0-1.447-1.24 8.019 8.019 0 0 1-.675-.57c-.41-.378-.803-.774-1.216-1.148a10.408 10.408 0 0 1-1.117-1.18 7.372 7.372 0 0 0-.595-.65c-.567-.55-1.158-1.076-1.672-1.679a2.823 2.823 0 0 0-.483-.433 11.508 11.508 0 0 1-1.496-1.324 8.764 8.764 0 0 0-1.379-1.174c-.218-.148-.438-.296-.643-.46-.302-.243-.605-.486-.883-.754-.692-.666-1.367-1.35-2.056-2.02-.712-.69-1.406-1.397-2.005-2.191a3.618 3.618 0 0 0-.471-.512 4.918 4.918 0 0 1-.981-1.17 1.193 1.193 0 0 0-.58-.513c-.39-.166-.73-.41-1.034-.703-.033-.032-.07-.062-.1-.096-.155-.166-.346-.2-.556-.146-.089.022-.173.063-.25.093-.028.055-.06.094-.067.137-.124.666-.246 1.331-.366 1.998-.033.181-.023.377-.088.545-.137.357-.133.724-.132 1.093.003.93-.09 1.846-.344 2.746a3.132 3.132 0 0 0-.097.823c-.005.68.016 1.358.027 2.037.005.293.034.587.012.878-.074.984-.168 1.967-.25 2.95-.048.585-.076 1.17-.137 1.754-.077.72-.186 1.437-.269 2.157-.063.552-.072 1.111-.167 1.657-.174 1.009-.193 2.027-.237 3.042-.032.77.026 1.543.05 2.314.005.153.033.307.062.458.124.643.131 1.283.01 1.93a5.348 5.348 0 0 0-.104 1.104c.024 1.002.067 2.001-.026 3.005-.058.627-.016 1.264-.02 1.896-.003.663.077 1.322.048 1.988-.024.583.025 1.167-.05 1.754-.047.364-.059.734-.137 1.096a1.323 1.323 0 0 0-.026.32c.03.895.062 1.789.095 2.683.002.042.024.083.036.123.46-.093.73-.186.94-.37a2.12 2.12 0 0 1 .989-.491.818.818 0 0 0 .438-.243 1.79 1.79 0 0 1 .844-.471c.27-.07.558-.075.82-.16.264-.084.502-.242.759-.35.185-.079.383-.128.574-.192.427-.143.853-.288 1.28-.43.087-.03.179-.05.267-.08.308-.103.614-.216.925-.31a.798.798 0 0 0 .394-.232c.187-.217.432-.346.683-.474.344-.174.68-.363 1.006-.538.123-.4.139-.774.056-1.164-.108-.514-.137-1.038-.144-1.565-.009-.545.408-1.278 1.07-1.488.132-.042.267-.09.383-.163.335-.21.697-.339 1.086-.395a.457.457 0 0 0 .313-.176c.21-.266.498-.409.82-.499.12-.033.232-.09.345-.139.255-.112.51-.226.764-.34.354-.16.7-.327 1.015-.561.337-.25.719-.429 1.12-.556.183-.058.359-.076.508.098.07.083.19.1.303.065.089-.027.179-.05.265-.084a.488.488 0 0 1 .449.033c.37.227.755.424 1.176.542a.43.43 0 0 1 .123.066c.436.29.92.51 1.241.91.315 0 .601.036.872-.01.27-.047.522-.194.79-.267a1.69 1.69 0 0 0 .502-.231c.429-.283.87-.54 1.372-.68a.984.984 0 0 0 .25-.118c.255-.157.52-.275.825-.295a.467.467 0 0 0 .255-.09c.26-.216.567-.294.885-.385.413-.118.807-.29 1.238-.374.325-.063.626-.255.971-.404.138-.303.422-.514.765-.698Zm.836 1.547c-.063.146-.092.274-.166.368-.102.131-.219.275-.364.345-.262.129-.548.212-.827.306-.19.064-.39.103-.578.173a6.75 6.75 0 0 1-.84.27 3.88 3.88 0 0 0-.868.326 7.327 7.327 0 0 1-1.122.434c-.575.18-1.16.36-1.647.74-.3.234-.665.33-1.008.472-.258.107-.527.186-.785.291a1.19 1.19 0 0 1-.683.087 1.191 1.191 0 0 0-.553.02c-.361.1-.706.021-1.04-.13a.664.664 0 0 1-.332-.312c-.186-.375-.528-.59-.886-.71a5.32 5.32 0 0 1-1.341-.69c-.163.08-.346.138-.489.248-.51.392-1.081.658-1.675.892a10.46 10.46 0 0 0-.924.434.457.457 0 0 0-.173.203.733.733 0 0 1-.446.376c-.322.114-.63.265-.984.263a.592.592 0 0 0-.226.05c-.215.09-.424.19-.639.28-.18.077-.269.207-.246.4.037.322.055.648.126.962.17.75.018 1.474-.142 2.197-.064.287-.316.449-.568.581-.343.18-.687.36-1.036.528a1.413 1.413 0 0 0-.452.318c-.17.187-.38.32-.617.405-.76.272-1.513.555-2.293.773a8.215 8.215 0 0 0-1.553.617c-.367.189-.743.39-1.185.38-.085-.002-.202.033-.25.093-.293.363-.726.462-1.13.61-.164.06-.31.124-.444.238a1.66 1.66 0 0 1-.4.228c-.282.127-.572.232-.838.398-.623.389-1.266.335-1.91.041a.53.53 0 0 1-.286-.29 4.28 4.28 0 0 1-.206-.66 3.816 3.816 0 0 1-.065-.644 326.362 326.362 0 0 1-.103-3.284 2.575 2.575 0 0 1 .049-.596 8.16 8.16 0 0 0 .163-1.79c-.017-1.404-.037-2.807-.044-4.21-.002-.323.056-.646.064-.97.01-.477.012-.955-.003-1.433-.017-.57-.046-1.14.033-1.709.023-.168.04-.337.072-.503.085-.43.072-.858.005-1.288-.043-.274-.093-.55-.103-.826-.029-.755-.07-1.512-.048-2.267.035-1.186.074-2.374.292-3.547.028-.151.047-.305.052-.459.026-.695.126-1.382.216-2.07.066-.505.111-1.012.162-1.518.06-.613.14-1.226.172-1.841.052-1.016.197-2.026.15-3.049a35.2 35.2 0 0 1-.014-2.267c.007-.337.037-.684.13-1.006.233-.81.286-1.637.31-2.47.02-.695.07-1.387.102-2.08a1.12 1.12 0 0 1 .193-.609c.117-.168.153-.357.178-.563.043-.349.115-.698.216-1.036.077-.255.284-.441.497-.6.598-.447 1.291-.594 2.023-.568.162.006.337.08.475.168.273.175.533.373.783.58.192.158.38.313.61.419.504.232.927.556 1.198 1.055.18.329.446.59.719.846.191.18.384.364.541.572.62.817 1.328 1.551 2.067 2.26a99.848 99.848 0 0 1 1.851 1.83c.394.398.828.747 1.29 1.062.695.473 1.343.998 1.92 1.61.382.407.806.77 1.255 1.106.21.157.42.325.59.522.498.575 1.056 1.09 1.606 1.613.258.244.482.522.722.785.272.296.535.6.818.887.326.33.662.652 1.008.961.404.362.825.704 1.236 1.058.423.363.848.725 1.264 1.096.22.197.437.389.703.528.406.212.727.517.97.91.17.275.382.525.584.78.27.34.538.679.71 1.081.132.307.332.554.628.724.246.142.433.348.603.572.253.332.507.664.827.94a.892.892 0 0 1 .206.248c.181.333.455.583.718.846a2.2 2.2 0 0 1 .365.475c.129.232.288.436.466.632.113.125.24.258.294.41.088.25.252.421.451.571.298.226.494.504.546.881.016.12.075.235.124.348.176.4.181.808.055 1.22a6.953 6.953 0 0 1-.183.523.671.671 0 0 1-.339.367c-.111.055-.225.104-.354.163Z"/>
      <path fill="#000" d="M131.432 70.91c-.003.074.012.172-.015.257-.14.447.104.84.165 1.258.169.179.314.39.511.528.319.223.692.346 1.086.386.106.01.22.018.323-.006.315-.075.627-.166.94-.252.045-.013.085-.047.13-.05.399-.028.61-.26.706-.626a.37.37 0 0 1 .067-.12c.397-.521.266-1.082.118-1.639a.525.525 0 0 0-.156-.225 3.186 3.186 0 0 1-.535-.694 1.019 1.019 0 0 0-.609-.472 6.141 6.141 0 0 1-.486-.159.815.815 0 0 0-.759.064.883.883 0 0 1-.297.114c-.576.105-.93.457-1.126.983-.075.203-.124.415-.063.653Zm82.908-23.93c-.204.055-.257.17-.314.279-.104.196-.239.37-.438.467-.209.101-.334.266-.452.45a2.47 2.47 0 0 0-.338.707 1.21 1.21 0 0 1-.339.597 1.973 1.973 0 0 0-.526.75c-.044.113-.133.208-.195.315-.109.186-.226.369-.314.564a10.2 10.2 0 0 1-.589 1.101c-.238.393-.539.755-.657 1.214-.017.066-.093.118-.145.174-.116.124-.232.248-.351.369a.813.813 0 0 0-.229.575c.054.037.09.08.13.084.3.031.57.135.824.296.089.057.201.078.301.118.13.052.268.09.383.163.155.098.315.106.489.107.231.003.467.01.691.06.205.044.396.052.596-.002.345-.092.69-.183 1.039-.262.313-.07.529-.312.813-.434.037-.016.064-.067.086-.107.176-.32.455-.495.804-.579a.426.426 0 0 0 .258-.181c.616-.884.618-.883.885-1.955l.014-.044c.072-.23.05-.449-.029-.678-.176-.51-.324-1.03-.362-1.573a.637.637 0 0 0-.099-.3 7.721 7.721 0 0 1-.716-1.348.853.853 0 0 0-.347-.422c-.292-.174-.588-.341-.873-.505Zm4.185 4.632c0-.022.003-.006 0 .009-.117.777-.244 1.553-.575 2.276-.064.14-.157.266-.24.395-.135.207-.285.405-.407.619-.168.295-.382.52-.726.605a.57.57 0 0 0-.39.303.487.487 0 0 1-.186.202c-.3.157-.584.335-.87.514-.266.167-.607.223-.92.308-.405.109-.819.184-1.221.3-.325.094-.643.11-.965.023a2.058 2.058 0 0 0-.692-.06 1.735 1.735 0 0 1-.898-.193c-.444-.216-.891-.428-1.375-.558-.439-.118-.828-.362-1.169-.654-.401-.342-.482-.813-.406-1.31a.52.52 0 0 1 .149-.28c.16-.147.227-.331.259-.53.046-.286.18-.52.381-.726.222-.226.363-.498.442-.803.031-.119.07-.236.101-.356a.893.893 0 0 1 .473-.6.721.721 0 0 0 .343-.36c.059-.126.123-.25.177-.378.124-.3.266-.59.464-.852.074-.098.138-.207.186-.32a1.94 1.94 0 0 1 .529-.751.83.83 0 0 0 .26-.43c.12-.442.386-.805.643-1.172a.866.866 0 0 1 .219-.238c.388-.252.617-.635.879-.995.342-.472.815-.702 1.407-.659.12.01.254.038.353.1.548.35 1.083.718 1.63 1.07.3.193.496.454.629.78.198.487.439.954.756 1.378.213.285.297.617.299.957.003.426.108.823.247 1.218.128.366.221.74.214 1.168Zm-57.378-8.757c.354.187.631.364.93.487.519.213 1.001.495 1.503.74.627.305 1.271.576 1.908.862.028.012.059.02.089.028.216.062.284.027.338-.183.026-.104.05-.21.066-.317.065-.442.138-.884.187-1.328a4.66 4.66 0 0 1 .305-1.16c.077-.2.139-.407.201-.613.058-.192.108-.387.159-.58.186-.7.396-1.396.386-2.133-.003-.183.048-.366.066-.55.014-.149.081-.299-.004-.476-.069.03-.146.047-.199.092-.368.308-.733.62-1.095.935-.817.713-1.64 1.417-2.525 2.048-.403.287-.801.582-1.136.955-.257.287-.556.537-.831.808-.109.106-.205.225-.348.385Zm-1.672-.764c.006-.361.227-.552.505-.726.248-.154.497-.33.687-.547.628-.72 1.381-1.287 2.153-1.837.227-.161.435-.348.651-.525.095-.079.188-.162.282-.242l2.02-1.714c.655-.558 1.406-.839 2.275-.772.464.035.82.323.917.774.108.5.132 1.013.065 1.519-.061.458-.132.914-.153 1.378-.024.557-.18 1.094-.313 1.634-.111.45-.231.896-.349 1.344-.024.09-.044.182-.086.264-.301.593-.347 1.243-.441 1.883-.055.381-.122.762-.205 1.138-.103.473-.403.758-.861.95-.651.272-1.272.243-1.896-.032-.881-.387-1.774-.75-2.608-1.234-.121-.07-.244-.144-.375-.188-.52-.174-.977-.474-1.461-.719a2.048 2.048 0 0 1-.315-.197c-.198-.15-.397-.296-.636-.38a.668.668 0 0 1-.449-.55c-.09-.544-.206-.767.593-1.221Zm-32.099-17.86c.191.01.354-.021.516-.081.433-.162.901-.24 1.276-.538a.11.11 0 0 1 .041-.021c.498-.127.865-.442 1.232-.782.245-.227.333-.467.305-.774-.012-.138-.048-.276-.046-.413.015-.658-.163-1.281-.351-1.9-.09-.294-.21-.58-.321-.866a.634.634 0 0 0-.269-.308c-.289-.18-.571-.371-.852-.563-.076-.051-.161-.108-.206-.184-.183-.308-.486-.462-.78-.637-.278-.165-.552-.15-.861-.07.031.228.069.438.084.649.015.215.008.431.01.647.001.139-.008.278.002.416.025.312-.009.62-.1.914-.084.273-.085.546-.078.823.02.74.047 1.479.063 2.218.01.498.088.979.335 1.47Zm-2.094-2.79c0-.524.001-1.047-.001-1.571 0-.217.004-.434.093-.636.084-.19.095-.386.091-.589a6.445 6.445 0 0 0-.117-1.187c-.092-.445-.064-.92-.049-1.38.008-.266.219-.438.44-.56.301-.167.629-.269.976-.283.342-.013.684-.016 1.026-.02.269-.001.526.063.758.197.282.162.554.341.833.508.216.128.403.281.551.488.079.11.198.195.31.275.2.145.401.294.617.413.316.174.507.443.664.751.233.457.38.944.521 1.432.111.385.205.776.284 1.168.054.27.069.55.1.824.023.214.052.428.062.642.011.214.008.43-.002.644-.004.107-.036.212-.057.318-.136.703-.157.734-.702 1.192-.118.1-.229.21-.325.329-.171.21-.379.36-.634.454-.32.117-.628.257-.916.448-.177.117-.391.186-.596.256-.455.155-.909.315-1.372.44-.393.105-.803.083-1.205.031-.263-.034-.459-.17-.527-.449a.884.884 0 0 0-.22-.434c-.121-.125-.189-.318-.236-.493-.164-.611-.289-1.23-.294-1.867-.004-.447-.025-.894-.039-1.34h-.034Zm3.704 19.555c.118.114.26.123.398.12.249-.004.497-.02.745-.037.349-.024.677-.098.925-.373.051-.056.124-.093.191-.133.293-.174.587-.346.773-.648a.582.582 0 0 1 .165-.162c.416-.284.516-.72.539-1.17.022-.415.005-.831-.16-1.23-.065-.152-.079-.328-.1-.496a.81.81 0 0 0-.146-.382c-.143-.2-.265-.415-.397-.623-.041-.065-.076-.136-.129-.19a38.616 38.616 0 0 0-.665-.646c-.244-.232-.593-.26-.868-.434-.177-.112-.378-.131-.583-.127-.466.008-.633-.023-.677.639-.033.49-.052.983-.061 1.476a45.79 45.79 0 0 0 .006 1.572c.003.2.028.4.046.599a14.15 14.15 0 0 1-.002 2.245Zm-1.627-1.146-.083-1.151c-.011-.154-.026-.308-.024-.461.007-.817.02-1.633.03-2.45.002-.184-.004-.37-.004-.554 0-.17-.002-.34.006-.508.012-.246.051-.491.045-.736-.009-.384.153-.678.491-.822.583-.25 1.179-.486 1.824-.517a2.57 2.57 0 0 1 1.349.292c.164.087.336.16.509.228.382.147.711.36.98.676.149.175.331.324.513.467.164.13.292.276.351.476.058.197.167.366.313.507.285.274.405.618.435.995.021.264.073.516.163.765.095.262.148.534.147.815a16.5 16.5 0 0 0 .019.833c.027.635-.186 1.21-.445 1.774-.007.014-.012.029-.021.04-.066.086-.116.198-.203.251-.401.247-.567.733-1.002.947-.293.144-.558.33-.806.547-.298.261-.684.37-1.054.472-.773.212-1.562.258-2.351.072-.18-.042-.354-.112-.528-.178a.699.699 0 0 1-.48-.63c-.027-.445-.121-.878-.182-1.317-.037-.272-.006-.554-.006-.831l.014-.002ZM58.716 63.272c.32-.23.628-.415.888-.65a3.21 3.21 0 0 0 .625-.743c.151-.262.21-.577.308-.87.02-.058.025-.121.045-.18.12-.347.083-.693.014-1.046-.107-.544-.394-1-.665-1.47a.856.856 0 0 0-.442-.388c-.201-.08-.39-.192-.593-.27-.217-.081-.439-.172-.666-.199-.617-.075-1.238-.127-1.838.119a.651.651 0 0 1-.227.043c-.451.01-.834.23-1.234.392a1.02 1.02 0 0 0-.345.234c-.19.199-.366.409-.642.51.136.17.267.303.363.459.14.229.318.416.535.571.101.072.19.16.29.234.544.408 1.05.866 1.636 1.218.271.164.497.366.665.635.132.212.31.383.52.524.26.176.475.396.622.677.028.052.069.098.141.2Zm3.61-2.968c.094.689-.133 1.255-.304 1.83-.03.103-.089.2-.11.304a1.39 1.39 0 0 1-.5.811c-.024.02-.05.04-.065.067-.332.613-.947.925-1.471 1.323-.558.422-1.226.496-1.908.366-.236-.045-.445-.173-.547-.397-.205-.448-.522-.79-.92-1.077-.158-.114-.276-.293-.388-.457a1.291 1.291 0 0 0-.517-.452c-.267-.129-.514-.287-.705-.52-.048-.06-.116-.103-.177-.15-.405-.312-.812-.62-1.216-.934-.097-.075-.205-.152-.27-.252-.22-.338-.5-.628-.755-.938-.107-.13-.194-.278-.285-.422-.23-.357-.25-.757-.213-1.16.024-.26.261-.362.44-.5.058-.045.141-.06.215-.082a.504.504 0 0 0 .288-.214c.386-.578.962-.906 1.591-1.157.288-.115.58-.221.871-.326.117-.042.237-.087.359-.1.311-.033.606-.127.908-.2.488-.117.992-.106 1.484-.06.947.088 1.788.484 2.596.96.222.13.379.312.515.522.43.666.784 1.365.96 2.143.042.18.1.359.12.541.02.198.004.4.004.531ZM41.85 46.814c.187.228.368.455.557.675.07.082.147.162.235.223.31.216.553.493.759.805.06.09.127.177.2.255.34.36.687.714 1.025 1.075.372.396.765.766 1.206 1.087.227.165.428.36.574.6.166.272.406.412.72.451.04-.019.085-.034.124-.058.298-.184.493-.454.68-.745.167-.26.247-.518.21-.824a9.69 9.69 0 0 1-.075-1.013c-.007-.539-.264-.977-.563-1.387-.226-.31-.552-.552-.757-.872-.241-.376-.66-.444-.978-.677-.062-.046-.122-.096-.19-.135-.3-.171-.613-.287-.97-.268-.342.018-.684.029-1.026.023a1.23 1.23 0 0 0-.74.235c-.28.193-.57.37-.9.475-.04.014-.07.057-.092.075Zm2.483-2.615c.078 0 .156.007.233-.002.758-.09 1.35.196 1.97.564.32.188.65.36.968.55.117.07.226.165.318.267.31.344.612.697.916 1.046.061.07.134.134.178.214.398.73.835 1.442.833 2.322 0 .57.072 1.138.09 1.708.007.228-.04.459-.069.687a.43.43 0 0 1-.058.173c-.174.274-.348.548-.533.814-.375.54-.92.86-1.514 1.108-.071.03-.147.051-.216.087-.332.17-.66.128-.987-.015-.029-.012-.055-.03-.085-.039a2.4 2.4 0 0 1-1.375-1.045 1.332 1.332 0 0 0-.362-.356c-.64-.45-1.161-1.022-1.689-1.59-.137-.147-.282-.287-.415-.438-.174-.197-.351-.392-.505-.603-.158-.215-.324-.414-.55-.56a.205.205 0 0 1-.037-.029c-.241-.258-.452-.557-.732-.764a2.673 2.673 0 0 1-.711-.78 1.953 1.953 0 0 1-.296-.96c-.014-.363.17-.586.465-.72a1.45 1.45 0 0 0 .446-.317c.137-.139.286-.262.491-.32.27-.074.503-.23.737-.388a3.593 3.593 0 0 1 1.836-.596c.217-.012.435-.002.653-.002v-.017Zm39.808 1.722c.221-.09.386-.176.561-.224.207-.058.436-.054.633-.132.196-.078.361-.23.547-.34.079-.045.174-.066.262-.093.118-.037.237-.069.364-.105.222-.511.626-.79 1.157-.915.1-.024.193-.09.28-.15.174-.124.34-.257.528-.4a1.42 1.42 0 0 0-.504-.503 1.307 1.307 0 0 1-.5-.472.983.983 0 0 0-.53-.429.799.799 0 0 1-.415-.355l-.12-.198c-.322-.53-.77-.964-1.141-1.457-.212-.28-.503-.502-.76-.747-.101-.096-.202-.196-.356-.193-.124.191-.125.191-.12.328.01.355.024.709.032 1.063.012.54.035 1.08.025 1.619-.01.538-.062 1.075-.08 1.614a4.85 4.85 0 0 0 .035.735c.025.214.105.421.124.634.018.21-.01.426-.022.72Zm3.987-.047c-.043.075-.09.172-.15.26a1.07 1.07 0 0 1-.53.435c-.19.069-.377.144-.564.22-.085.034-.174.066-.25.116-.39.262-.792.424-1.28.507-.254.33-.602.474-1.01.458-.23-.008-.432.068-.622.163-.225.112-.45.102-.68.071a.49.49 0 0 1-.374-.246c-.125-.215-.242-.433-.261-.685-.044-.569-.112-1.136.02-1.704a.827.827 0 0 0-.013-.408c-.125-.423-.138-.855-.112-1.285.092-1.478.09-2.957.03-4.436-.006-.138-.002-.278-.004-.416a.892.892 0 0 1 .15-.525c.06-.09.112-.186.156-.283.18-.395.49-.628.91-.724.105-.025.218-.03.317-.07.355-.142.658-.047.969.145.463.287.906.585 1.283.988.307.327.643.624.881 1.01.064.104.16.188.239.283.137.168.29.325.4.509.13.22.298.391.518.514.25.138.447.326.608.561.077.112.184.21.293.292.525.394.992.838 1.314 1.415.184.329.309.664.217 1.057-.06.253-.068.518-.099.777a.422.422 0 0 1-.303.371c-.29.105-.563.258-.892.235-.101-.007-.21.045-.31.081-.277.099-.552.203-.851.314Z"/>
    </g>
  </g>
  <defs>
    <clipPath id="a">
      <path fill="#fff" d="M0 0h250v103.306H0z"/>
    </clipPath>
  </defs>
</svg>
