<svg xmlns="http://www.w3.org/2000/svg" width="47" height="72" fill="none" viewBox="0 0 47 72">
  <path fill="#A97F24" d="M27.516 62.406c-.493-.16-1.008-.171-1.517-.212-.14-.011-.285.014-.426.033a4.39 4.39 0 0 0-.424.076 1.4 1.4 0 0 1-.788-.021c-.417-.145-.846-.134-1.276-.14-1.027-.012-.792.1-1.902-.36a1.949 1.949 0 0 0-.717-.144c-.514-.01-1.024.009-1.521.157-.077.011-.155.02-.231.034-.135.027-.269.058-.403.088-.079-.008-.157-.02-.236-.021-.102-.001-.195.028-.258.117-.163.012-.336-.006-.487.043-.32.103-.644.099-.97.102-.37.002-.737 0-1.106-.003-.225-.002-.45-.01-.675-.012-.144-.001-.261-.125-.413-.086-.514-.035-1.021-.137-1.537-.154-.314-.01-.604-.124-.883-.262a.508.508 0 0 1-.241-.27c-.094-.217-.095-.443-.073-.669.023-.246.06-.49.101-.734a.97.97 0 0 1 .1-.29c.289-.55.51-1.124.674-1.723.076-.282.198-.537.44-.727a.833.833 0 0 0 .21-.298c.08-.167.134-.346.203-.518.14-.345.298-.68.567-.949.12-.12.196-.263.255-.418.317-.828.605-1.665.843-2.519.006-.02.013-.04.015-.06.044-.491.09-.982.13-1.474a.357.357 0 0 0-.11-.28 4.5 4.5 0 0 0-.767-.62.333.333 0 0 0-.174-.054c-.185 0-.377-.019-.553.025a4.286 4.286 0 0 1-.917.118.424.424 0 0 0-.358.207c-.057.086-.11.174-.167.26-.331.5-.356.523-.894.833-.036.064-.082.133-.116.208-.14.305-.349.56-.6.777-.25.217-.474.458-.697.701-.18.197-.374.385-.579.557-.275.232-.49.5-.592.849a1.826 1.826 0 0 1-.508.834.832.832 0 0 0-.235.427c-.02.08-.027.162-.047.242-.064.258-.209.445-.467.532-.308.152-.546.056-.737-.208-.012-.016-.026-.031-.038-.048-.211-.318-.519-.501-.869-.633a5.726 5.726 0 0 1-.612-.268c-.215-.111-.42-.244-.628-.367-.056-.057-.104-.128-.17-.168a2.23 2.23 0 0 0-.333-.16c-.22-.09-.302-.264-.325-.483-.02-.193-.008-.37.157-.505a.584.584 0 0 0 .198-.373c.067-.393.245-.74.445-1.08.293-.496.612-.978.853-1.505.06-.13.134-.255.189-.388.437-1.06 1.088-1.984 1.804-2.867.156-.193.31-.387.477-.57.182-.197.342-.41.48-.641.148-.25.33-.471.532-.68.142-.148.27-.31.393-.475.253-.339.558-.6.961-.748.191-.07.37-.18.548-.281.252-.143.509-.263.792-.338.216-.058.424-.155.63-.25.224-.103.44-.225.66-.336a1.54 1.54 0 0 1 .897-.176c.788.104 1.563-.061 2.344-.087.02 0 .042 0 .061-.006.526-.149 1.06-.107 1.597-.093.638.018 1.277-.004 1.916-.01a.895.895 0 0 0 .416-.098c.145-.076.302-.127.454-.189l.782-.176c.385.02.77.043 1.148.138.24.061.485.068.725-.003.239-.07.482-.066.726-.064.203.002.406-.007.609-.01.102.012.204.022.306.037.317.05.583.186.772.454.01.015.035.022.052.032.494-.007.987-.01 1.48-.022.143-.004.287-.027.427-.055.404-.08.807-.162 1.221-.166a2.02 2.02 0 0 0 .607-.099c.7-.225 1.42-.208 2.141-.148.584.17 1.185.135 1.779.116.48-.015.936.116 1.405.165a.91.91 0 0 1 .449.195c.082.062.163.125.246.185.189.136.401.229.631.22.271-.011.531.067.798.064.24-.003.437.087.628.219.445.308.82.688 1.145 1.116.199.262.375.541.553.819.233.363.441.744.69 1.096.505.715.86 1.497 1.118 2.327.08.255.166.508.252.761.099.293.2.583.391.834.06.08.096.181.129.277.08.234.15.47.225.705.05.157.099.314.152.47.027.08.118.135.191.119.06-.014.119-.035.178-.052.406-.115.784.329.67.708-.055.18-.114.352-.245.492-.126.136-.252.271-.374.41-.067.076-.126.158-.188.237-.046.037-.111.066-.134.114a.613.613 0 0 1-.361.307c-.076.029-.151.058-.228.082-.272.083-.53.185-.77.348-.164.113-.367.169-.551.251-.148.066-.31.11-.437.205-.134.1-.282.153-.428.222-.032.015-.05.059-.076.09-.099.024-.2.045-.297.075-.261.083-.497.042-.67-.172a.433.433 0 0 0-.31-.175c-.253-.028-.41-.179-.5-.404a4.259 4.259 0 0 1-.197-.583 1.999 1.999 0 0 0-.67-1.085c-.079-.066-.152-.14-.233-.202-.416-.318-.736-.719-1.01-1.158a9.164 9.164 0 0 0-.733-.994c-.106-.127-.218-.249-.31-.385-.34-.5-.797-.886-1.228-1.298-.071-.068-.174-.105-.267-.145-.031-.013-.086-.003-.115.018-.188.135-.31.325-.428.52a.149.149 0 0 0-.019.058c-.044.369-.088.738.085 1.09.081.166.17.33.25.497.222.469.351.968.442 1.475.102.567.178 1.139.246 1.711.09.756.162 1.515.241 2.272.047.45.09.902.138 1.352.072.697.192 1.385.336 2.072.11.525.148 1.06-.029 1.587-.045.135-.049.284-.086.422a.42.42 0 0 1-.236.268 1.064 1.064 0 0 1-.838.07c-.118-.037-.23-.091-.358-.067-.387-.005-.774-.012-1.161-.014-.08 0-.168 0-.242.028-.276.102-.562.088-.846.089-.551 0-1.102-.012-1.652 0a3.21 3.21 0 0 1-.902-.113Z"/>
  <path fill="#F0BE41" d="M22.412 38.644c.274.024.52.018.752-.09a.62.62 0 0 1 .18-.044c.454-.058.855-.285 1.292-.4.038-.01.074-.036.108-.06.202-.14.396-.293.607-.418.281-.167.485-.443.806-.557.139-.049.221-.18.282-.315a1.03 1.03 0 0 0 .061-.174.507.507 0 0 1 .306-.36.352.352 0 0 0 .174-.162c.06-.15.126-.3.074-.476-.052-.177-.048-.37-.11-.542-.063-.17-.179-.322-.269-.482-.02-.036-.027-.079-.047-.114-.277-.507-.712-.838-1.214-1.095-.342-.073-.629-.297-.983-.348a.864.864 0 0 1-.389-.177c-.276-.219-.583-.285-.925-.258-.142.01-.287-.017-.431-.016-.479.005-.939.072-1.342.365-.097.07-.225.098-.338.146-.17.073-.344.136-.506.223-.144.078-.262.206-.41.272-.366.164-.651.428-.933.699-.15.145-.305.261-.52.308-.25.055-.36.258-.393.5-.028.206.026.408.04.612.036.477.243.868.558 1.21.195.21.408.405.61.61.147.15.31.256.523.307.238.058.465.155.643.345.065.07.177.098.273.131.155.054.323.078.47.147.343.164.7.236 1.05.213Zm-1.35 3.757-.781.176c-.048-.035-.094-.097-.145-.102a5.76 5.76 0 0 0-.555-.012c-.618.008-1.236.03-1.854.027-.273 0-.532.03-.777.153a.66.66 0 0 1-.36.066c-.153-.014-.277-.075-.354-.213-.09-.16-.184-.32-.263-.486-.121-.253-.178-.506.027-.752.085-.101.086-.231.064-.354-.022-.12-.063-.238-.093-.358-.039-.16-.095-.319-.108-.48a1.534 1.534 0 0 0-.269-.747c-.102-.154-.183-.322-.283-.478a.427.427 0 0 0-.418-.21c-.083.007-.166.01-.246.025a.432.432 0 0 0-.17.064 8.432 8.432 0 0 0-.536.416.806.806 0 0 0-.183.246c-.152.304-.384.53-.659.722-.22.153-.427.324-.65.471a4.03 4.03 0 0 1-.489.263 1.273 1.273 0 0 1-.843.107c-.266-.06-.532-.051-.799-.058-.185-.005-.373.002-.554-.028-.37-.062-.676-.253-.769-.627a4.726 4.726 0 0 0-.47-1.135c-.113-.206-.13-.43-.125-.66a.468.468 0 0 1 .229-.411l.26-.167a2.4 2.4 0 0 0-.012-.745c-.013-.081-.036-.161-.054-.241-.157-.684-.27-1.373-.263-2.078a2.156 2.156 0 0 0-.069-.488 5.684 5.684 0 0 1-.11-2.022c.061-.468.05-.945.06-1.42.018-.993-.088-.821.323-1.927.064-.173.119-.35.193-.52.084-.192.222-.34.404-.454.243-.154.478-.32.713-.488.22-.156.445-.297.71-.362.182-.045.341-.139.506-.226.41-.217.83-.216 1.242-.002.164.086.32.186.476.285.125.078.221.18.256.332a.521.521 0 0 0 .206.3c.353.267.607.612.809 1.001.037.073.077.147.129.21.288.36.472.763.585 1.212.087.343.288.632.597.836a.847.847 0 0 0 .585.147c.349-.04.684-.13.985-.287.128-.234.255-.446.363-.667.11-.223.19-.445.098-.71-.088-.251-.003-.486.182-.68.008.019.017.038.022.057.054.21.195.305.407.3a.884.884 0 0 0 .182-.029c.12-.029.194.029.25.125.04.071.078.144.118.216.11.197.288.288.502.312.185.02.364.001.545-.063.211-.074.416-.184.65-.172.212.011.407-.049.592-.144.253-.131.501-.121.773-.038.371.114.751.203 1.15.17.204-.017.407-.01.607-.081.113-.041.242-.039.363-.056l2.767.013c.051.034.107.063.152.103.208.186.444.194.688.1.114-.044.217-.113.326-.17.12.31.186.63.2.963.009.184.046.367.071.55.02.143.056.285.06.428.006.292.079.571.146.85.067.282.17.544.35.783.159.212.274.458.403.693.09.165.196.31.353.422a1.8 1.8 0 0 1 .324.285c.205.24.461.333.768.323.082-.003.164.009.247.01.878.012 1.54-.371 2.017-1.098.067-.103.127-.217.215-.3.188-.178.29-.398.356-.639a1.88 1.88 0 0 1 .365-.709.813.813 0 0 0 .155-.331c.045-.179.095-.361.177-.524.115-.229.164-.463.163-.715 0-.227.019-.452.104-.668.07-.177.042-.366.048-.551.004-.12-.016-.245.055-.357l.363.037a.76.76 0 0 0 .055-.55c-.022-.1-.067-.195-.088-.295-.043-.21-.032-.411.133-.575.115-.114.128-.258.096-.403-.048-.22-.095-.444-.172-.656-.16-.446-.338-.885-.514-1.325a2.52 2.52 0 0 0-.404-.69 3.961 3.961 0 0 1-.398-.551c-.228-.395-.534-.733-.793-1.104a1.577 1.577 0 0 0-.5-.454 4.388 4.388 0 0 1-.83-.64 2.427 2.427 0 0 0-.397-.292 4.082 4.082 0 0 1-.731-.569c-.29-.295-.625-.537-.948-.793-.242-.191-.495-.371-.793-.473a1.292 1.292 0 0 1-.593-.43c-.282-.355-.56-.714-.825-1.081-.18-.25-.342-.514-.553-.744a2.568 2.568 0 0 1-.288-.4 82.08 82.08 0 0 1-.79-1.326 1.325 1.325 0 0 1-.149-.337c-.05-.202-.112-.394-.245-.559-.037-.046-.053-.111-.07-.17-.122-.447.109-.72.55-.77.183-.02.373-.005.556.02.49.068.982.108 1.476.144.142.01.288.039.421.088.197.073.352.192.43.41.138.387.308.764.449 1.15.166.455.439.841.766 1.186a45.194 45.194 0 0 0 2.177 2.108 2 2 0 0 0 .518.33c.224.105.45.207.661.334.23.137.442.302.626.5.142.154.306.258.516.319.302.087.538.302.748.532.252.273.495.552.774.798.092.081.164.186.237.285.184.249.367.497.542.753.105.152.199.313.286.476.125.237.241.479.359.72.181.37.344.747.388 1.166.015.141.06.283.113.417.107.271.163.56.185.842.036.477.165.932.246 1.398.017.101.035.203.044.305.031.334-.01.659-.123.973-.05.136-.097.273-.157.404-.08.173-.102.354-.107.541-.01.434.007.867.079 1.295a.91.91 0 0 1-.157.7.586.586 0 0 0-.12.341c-.003.382-.126.726-.31 1.056-.09.162-.154.337-.233.504-.052.112-.093.235-.169.328-.185.228-.304.49-.41.758a1.34 1.34 0 0 1-.31.457c-.16.16-.324.317-.477.484-.24.261-.509.48-.832.631-.281.132-.534.31-.79.485a4.483 4.483 0 0 1-.53.315c-.259.13-.53.225-.829.213a.923.923 0 0 0-.577.186 2.164 2.164 0 0 1-1.211.408.598.598 0 0 0-.295.07c-.32.203-.667.318-1.035.385-.153.027-.263.103-.313.261-.057.183-.192.315-.324.446a.997.997 0 0 0-.286.536c-.05.263-.091.528-.154.788-.058.24-.14.473-.212.712.041.12.083.235.12.351.053.163.03.325-.01.487a.27.27 0 0 1-.152.182.925.925 0 0 1-.473.122c-.144-.008-.29 0-.432-.02-.428-.055-.864-.048-1.282-.178a.833.833 0 0 0-.243-.037c-.494-.002-.989 0-1.483.002-.06-.001-.129-.02-.181 0-.331.125-.673.118-1.02.11-.486-.011-.974-.022-1.46.034-.181.02-.365.012-.547.017Z"/>
  <path fill="#A98025" d="M23.964 29.462c-.122.017-.25.015-.364.056-.199.072-.402.064-.607.081-.398.033-.778-.056-1.15-.17-.27-.084-.519-.093-.772.038-.185.095-.38.155-.592.144-.234-.012-.44.098-.65.172a1.21 1.21 0 0 1-.545.063c-.214-.024-.393-.115-.502-.312-.04-.072-.078-.145-.118-.216-.056-.096-.13-.154-.25-.125a.874.874 0 0 1-.183.028c-.211.006-.352-.088-.406-.299-.005-.02-.014-.038-.022-.057-.043-.12-.1-.224-.25-.233-.124-.008-.25-.012-.369-.04a.424.424 0 0 1-.328-.334c-.019-.08-.023-.163-.03-.245-.02-.231.129-.399.316-.482.094-.04.199-.054.297-.084.077-.023.152-.052.233-.08.07-.378.125-.743.124-1.115 0-.413.008-.825 0-1.237-.003-.206-.031-.41-.053-.615a1.745 1.745 0 0 1 .07-.73c.107-.336.538-.559.895-.247.092.08.188.164.255.265.113.17.21.353.304.536.055.11.098.228.134.346.147.489.506.788.922 1.035a.7.7 0 0 0 .172.069c.158.043.318.081.456.116a.291.291 0 0 0 .17-.2c.166-.637.373-1.264.45-1.923.034-.285.117-.567.281-.812.153-.227.225-.484.297-.742.039-.139.07-.282.129-.412a.68.68 0 0 1 .184-.24.558.558 0 0 1 .899.26c.145.494.273.993.395 1.493.146.602.325 1.191.561 1.764.134.323.229.662.337.994.033.1.064.196.177.264.053-.156.109-.309.159-.464a1.21 1.21 0 0 1 .625-.73c.11-.057.22-.111.316-.16.017-.035.032-.052.035-.072.02-.141.007-.299.066-.421.069-.144.2-.257.305-.382.04-.048.079-.097.126-.136.165-.135.27-.31.336-.508.11-.336.343-.555.655-.702.093-.044.185-.091.275-.142.209-.116.395-.077.567.077.045.041.09.085.125.119.117.27.083.536.03.801-.087.424-.168.85-.268 1.27-.11.463-.161.935-.193 1.406-.037.555-.061 1.111-.004 1.668.03.287.029.576.044.864a1.64 1.64 0 0 1-.133.784c-.109.058-.213.126-.326.17-.245.093-.48.085-.688-.1-.046-.04-.1-.069-.152-.103-.021-.077-.023-.17-.069-.228-.101-.126-.226-.234-.33-.339-.433.058-.433.058-.928-.093-.405.169-.822.34-1.237.518-.073.03-.136.085-.203.129Z"/>
  <path fill="#A97F25" d="M33.304 66.216c.227.029.449.033.671-.043.3-.103.61-.089.916-.025.463.096.932.157 1.402.214.264.032.526.093.786.153.18.042.352.118.532.158.519.116.963.353 1.28.758.12.064.22.035.323.03a1.02 1.02 0 0 1 1.014.648c.125.31.153.64.21.963.034.19-.073.357-.098.52-.281.221-.565.288-.892.145-.194.056-.34.211-.52.306-.168.089-.282.235-.396.382a.4.4 0 0 1-.147.107c-.094.043-.191.099-.29.104-.334.018-.636.142-.943.258-.093.035-.201.037-.303.04a1.515 1.515 0 0 1-.308-.02 2.963 2.963 0 0 0-1.105.037c-.285.057-.57.076-.86.078a5.49 5.49 0 0 0-1.04.104c-.489.097-.983.099-1.464-.072a2.475 2.475 0 0 0-.91-.143c-1.011.03-1.764-.476-2.407-1.187a1.468 1.468 0 0 1-.386-1.017c.001-.103-.001-.207.002-.31.016-.483.115-.939.454-1.312.026-.029.036-.073.054-.11.074-.025.149-.049.223-.076.24-.088.48-.184.74-.198a.737.737 0 0 1 .464.132c.1.062.151.209.34.18l.805-.5.119-.048c.207-.012.418-.002.605-.115.384.012.767.018 1.13-.141Zm-15.513 1.128a.976.976 0 0 1 .44.571c.077.256.175.504.255.759.088.279.012.525-.178.739a3.397 3.397 0 0 1-.263.26c-.203.18-.366.385-.473.638-.116.278-.334.457-.607.583-.985.458-.81.448-1.948.405-.247-.01-.494-.007-.74-.007-.268 0-.534-.005-.798-.062-.16-.035-.327-.037-.49-.041a12.785 12.785 0 0 0-.741 0c-.704.023-1.393-.08-2.08-.215-.282-.056-.568-.098-.85-.154-.14-.029-.276-.075-.412-.119-.228-.073-.402-.211-.476-.445a.986.986 0 0 0-.223-.364c-.28-.309-.366-.674-.328-1.085.032-.35.105-.69.204-1.026.028-.099.07-.194.11-.288.247-.581.686-.92 1.312-.981a3.18 3.18 0 0 0 .777-.17c.236-.085.478-.123.726-.124.494-.003.988-.005 1.481-.004.243 0 .435.105.574.305l.107.16c.06-.027.119-.04.16-.075a.654.654 0 0 1 .46-.144c.185.007.37.018.555.02.247 0 .494-.007.74-.011.242.005.484.017.725.012.305-.006.604.01.89.13.093.124.234.141.372.166.203.235.438.43.72.567Z"/>
  <path fill="#F0BE41" d="M39.115 55.597c.025-.03.044-.075.076-.09.146-.069.294-.121.428-.222.126-.094.29-.14.437-.205.184-.082.387-.138.55-.25.24-.164.499-.266.77-.349.078-.024.153-.053.229-.082a.613.613 0 0 0 .36-.307c.024-.048.089-.076.135-.114.164-.007.328-.019.492-.018.187 0 .366.036.538.117.167.079.34.145.512.212.253.097.473.25.682.417.24.191.469.4.706.596.145.121.254.27.337.436.167.331.283.683.384 1.039.028.097.033.203.03.305-.01.453-.052.903-.125 1.35a.777.777 0 0 1-.104.286c-.267.419-.454.875-.636 1.334a1.387 1.387 0 0 1-.475.628c-.265.195-.516.402-.838.509-.245.08-.48.091-.726.032-.218-.052-.418-.195-.651-.167a3.55 3.55 0 0 0-.601.127c-.312.093-.615.025-.913-.045-.2-.047-.374-.17-.519-.32-.34-.357-.7-.699-1.018-1.075-.612-.726-.851-1.58-.792-2.523.012-.189.086-.36.168-.525.183-.368.375-.731.564-1.096Zm-34.81-.513c.209.123.413.256.628.367.198.102.404.19.612.268.35.131.658.315.87.633.01.017.025.032.037.048.19.264.43.36.737.208.135.232.249.472.342.724.064.172.153.335.234.5.151.307.203.625.112.958-.136.496-.254.995-.332 1.503a1.244 1.244 0 0 1-.24.562c-.087.115-.17.232-.251.352a.98.98 0 0 1-.84.44c-.418.004-.812.115-1.216.183-.594.1-1.185.108-1.771-.053a1.526 1.526 0 0 1-.604-.297c-.359-.308-.726-.607-1.018-.985a1.964 1.964 0 0 1-.352-.645c-.1-.335-.202-.669-.293-1.006a1.974 1.974 0 0 1-.005-1.036c.1-.376.18-.76.357-1.112.037-.072.055-.154.075-.233.105-.406.372-.681.724-.88a3.572 3.572 0 0 1 1.64-.486c.184-.007.369-.009.554-.013Z"/>
  <path fill="#EFBD41" d="M17.791 67.344a2.232 2.232 0 0 1-.719-.568c-.006-.14-.012-.281-.02-.422-.002-.014-.022-.038-.035-.04-.037-.005-.094-.015-.11.004-.075.093-.14.194-.208.293-.285-.12-.584-.136-.889-.13-.241.005-.483-.007-.724-.012-.041-.105-.14-.148-.227-.197a.269.269 0 0 0-.172-.035c-.12.025-.232.089-.351.108-.44.072-.75.013-.818-.574-.08-.692-.11-1.393.092-2.081.14-.475.3-.94.584-1.35.072-.104.02-.193-.03-.283.153-.04.271.084.415.086.225.001.45.01.675.012.369.003.737.005 1.105.002.326-.002.651.002.971-.101.151-.05.324-.03.487-.043.189.143.237.15.387.031.043-.033.072-.084.107-.127.134-.03.268-.06.403-.088.076-.015.154-.023.23-.034.046.04.087.09.138.12.23.141.33.357.355.613.055.553.065 1.103-.118 1.639-.033.096-.06.195-.093.292a3.242 3.242 0 0 0-.167.776 3.327 3.327 0 0 1-.251 1.008c-.103.248-.24.475-.495.603-.053.027-.117.063-.14.111-.084.175-.28.235-.382.387Z"/>
  <path fill="#A97F25" d="M22.124 4.784c.01-.123.017-.246.029-.37a.462.462 0 0 0-.083-.346c-.058-.077-.076-.189-.096-.289a.4.4 0 0 1 .202-.415c.054-.029.107-.066.166-.08.242-.055.494-.106.733-.035.225.066.43.094.655.014a.821.821 0 0 1 .306-.026c.33.01.658.035.984-.042a.29.29 0 0 1 .123-.001c.611.126 1.231.028 1.846.068.246.017.49.045.735.078.297.04.54.196.76.385a.696.696 0 0 1 .154.845.689.689 0 0 1-.104.152.559.559 0 0 0-.17.386c-.007.43-.18.798-.42 1.141-.106.152-.206.308-.317.456-.062.081-.128.174-.215.218-.194.098-.308.264-.43.43a.59.59 0 0 1-.356.227c-.282.063-.561.125-.852.03-.179-.057-.367-.04-.55 0a1.49 1.49 0 0 1-1.018-.147 1.832 1.832 0 0 0-.529-.156c-.678-.119-.829-.218-1.128-.82-.018-.036-.032-.076-.055-.11-.32-.485-.421-1.021-.37-1.593Z"/>
  <path fill="#EFBE41" d="M33.304 66.216c-.362.16-.745.153-1.129.14-.037-.04-.067-.099-.113-.117a.214.214 0 0 0-.165.005c-.115.066-.247.11-.327.228l-.119.047c-.16-.024-.318-.053-.479-.069-.12-.01-.244.011-.362-.009-.116-.02-.226-.073-.326-.107-.13.062-.238.115-.346.168-.088.042-.088.126-.095.206-.262.014-.5.11-.741.198-.074.027-.15.05-.223.076-.205-.123-.31-.326-.393-.534-.137-.342-.306-.67-.453-1.006-.329-.754-.562-1.536-.586-2.368-.006-.226.002-.45.068-.669.296.08.594.12.903.114.55-.012 1.1 0 1.652 0 .284-.001.57.013.846-.089a.7.7 0 0 1 .242-.028c.387.002.774.009 1.161.014.448.98.728 2.011.93 3.065.027.14.015.288.024.43.007.103.02.204.031.305Z"/>
  <path fill="#FFFEFD" d="M22.411 38.644a2.116 2.116 0 0 1-1.05-.213c-.147-.07-.315-.093-.47-.147-.096-.033-.209-.062-.273-.13-.178-.191-.405-.289-.643-.346a1.065 1.065 0 0 1-.523-.307c-.203-.205-.416-.4-.61-.61-.315-.342-.522-.733-.557-1.21-.015-.204-.069-.406-.041-.613.033-.241.143-.444.393-.499.215-.047.37-.163.52-.308.281-.271.567-.535.933-.7.147-.065.266-.193.41-.27.161-.088.337-.151.506-.224.113-.048.24-.076.337-.146.404-.293.864-.36 1.343-.365.144-.001.289.027.431.016.342-.027.649.04.925.257.11.087.253.158.39.178.353.05.64.275.982.348.502.257.937.588 1.214 1.094.02.036.027.079.047.115.09.16.206.312.268.482.063.171.06.365.11.541.053.177-.012.328-.074.477a.352.352 0 0 1-.174.161.507.507 0 0 0-.305.36c-.015.06-.036.119-.061.175-.061.134-.144.266-.282.315-.322.114-.525.39-.807.557-.21.125-.404.279-.607.418a.345.345 0 0 1-.107.06c-.437.115-.838.342-1.293.4a.619.619 0 0 0-.179.044c-.233.108-.478.114-.753.09Z"/>
  <path fill="#000" d="M24.672 43.138c.003.05-.015.125.015.161.077.095.174.173.264.258.074.071.174.13.218.216.162.315.43.552.609.852.109.183.255.317.428.436.117.081.248.165.324.28.184.283.456.474.685.709.02.022.075.015.113.013.012 0 .029-.032.03-.05.03-.389.063-.778.086-1.168.035-.58-.088-1.148-.131-1.723-.006-.074-.089-.148-.171-.147-.515.001-1.03.005-1.545.01a.658.658 0 0 0-.123.016l-.802.137Zm-7.446.533c.066.438.056.913.235 1.364.167.423.247.869.24 1.328-.002.101.015.204.036.304.005.023.068.057.095.05a1.88 1.88 0 0 0 .66-.323c.114-.085.233-.173.364-.227.252-.102.477-.235.658-.44a.532.532 0 0 1 .148-.112c.188-.1.312-.258.43-.43.093-.133.208-.264.341-.35a4.04 4.04 0 0 0 .62-.505c.1-.099.233-.166.349-.25.082-.06.184-.11.236-.192.157-.242.342-.46.52-.685.01-.013-.026-.09-.046-.093-.697-.092-1.395-.047-2.093-.004a.426.426 0 0 0-.12.029c-.24.088-.486.07-.733.059-.205-.01-.41-.026-.616-.023-.288.003-.576.008-.86-.048-.08-.015-.165-.005-.247-.003-.06.001-.168.094-.175.154-.015.122-.026.244-.042.397Zm15.519 21.95c-.026-.09-.044-.19-.085-.282a5.089 5.089 0 0 1-.366-1.304 6.114 6.114 0 0 0-.186-.78c-.04-.136-.115-.262-.18-.39a.385.385 0 0 0-.296-.202 3.47 3.47 0 0 0-.862-.026c-.31.026-.616.017-.92-.06a1.637 1.637 0 0 0-.736-.022c-.31.065-.612.054-.92-.004-.118-.022-.244-.01-.366-.011-.047 0-.1.09-.086.14.01.04.016.082.03.12.26.694.474 1.401.61 2.132.067.363.168.72.258 1.08.03.126.14.225.258.232.453.024.903.046 1.347-.092.414-.13.84-.197 1.278-.186.185.005.374.007.555-.024.24-.041.487-.092.667-.322Zm-17.439-3.184-.001.019c-.164 0-.329-.002-.493 0-.134.003-.243.062-.296.185-.123.282-.245.565-.35.854-.098.27-.174.547-.257.822-.096.314-.18.627-.18.963.003.445-.053.505.477.601.08.015.156.052.235.073.443.122.892.143 1.341.057.227-.044.444-.04.672-.01.325.041.654.054.982.066a.799.799 0 0 0 .768-.508c.11-.265.21-.534.311-.803.072-.192.148-.383.203-.58.11-.396.216-.793.4-1.163.017-.037.027-.078.038-.117.006-.02.005-.041.01-.06.02-.085-.034-.18-.112-.181-.451-.012-.903-.025-1.354-.03-.494-.007-.985-.018-1.474-.1-.303-.05-.613-.06-.92-.088Zm12.512-59.55c0-.201.035-.475-.006-.736-.16-.995-.012-.939-1.082-.99-.143-.006-.287.024-.43.041-.308.038-.615.06-.922-.004-.247-.052-.494-.012-.736.031-.183.033-.366.045-.55.067-.41.047-.82.07-1.232.068-.04 0-.081.012-.121.019-.085.014-.195.121-.209.207-.012.081-.026.163-.027.245-.009.514-.015 1.03-.021 1.544-.008.56.083 1.107.215 1.65.11.446.294.858.561 1.228.244.338.542.627.948.762a2.93 2.93 0 0 0 1.644.053c.08-.019.155-.055.228-.093.444-.235.827-.54 1.07-.991.166-.308.323-.62.407-.964.167-.68.336-1.36.263-2.136ZM1.128 58.54c0 .156-.008.342.001.527.01.207.054.413.162.59.257.422.533.833.906 1.165.09.08.194.156.303.205.396.179.81.302 1.24.353.245.029.491.041.734.095.203.044.406.03.61-.03.237-.069.47-.137.677-.284.133-.094.291-.152.436-.23.728-.385.808-.472 1.135-1.221.009-.02.02-.037.028-.056.146-.388.258-.782.197-1.204a4.867 4.867 0 0 0-.28-1.135c-.041-.102-.105-.187-.205-.216a3.193 3.193 0 0 1-.795-.331.57.57 0 0 0-.236-.065c-.26-.028-.433-.23-.656-.321-.243-.099-.534-.034-.776-.174a7.09 7.09 0 0 0-.271-.147c-.128-.066-.254-.137-.387-.19-.267-.108-.536-.215-.826-.06-.05.027-.12.016-.182.02-.405.025-.755.19-1.07.43-.303.231-.522.52-.596.906-.085.445-.196.885-.15 1.373Zm37.974-1.395v.17c-.01.521.055 1.024.349 1.476.066.1.102.225.134.344.046.172.158.284.298.377.24.16.494.302.717.483.265.215.573.322.89.407.4.107.806.161 1.218.028.134-.043.285-.035.428-.052a1.78 1.78 0 0 0 .906-.352c.198-.151.378-.312.547-.495.268-.289.473-.622.71-.931a.991.991 0 0 0 .206-.57 6.522 6.522 0 0 0-.173-1.778 1.05 1.05 0 0 0-.338-.576c-.186-.162-.38-.318-.554-.492-.45-.45-.984-.654-1.62-.603a1.399 1.399 0 0 0-.415.1c-.537.21-1.032.503-1.547.757a6.998 6.998 0 0 0-.847.501c-.119.081-.23.175-.355.243-.181.099-.38.177-.502.349-.145.202.001.442-.052.614ZM36.539 70.23c.247 0 .494.004.741-.002.123-.004.252-.005.365-.046.29-.104.576-.221.883-.272.038-.007.072-.036.108-.056.177-.103.354-.207.533-.308a.547.547 0 0 0 .254-.336.832.832 0 0 0 .037-.365c-.079-.429-.222-.83-.524-1.165-.242-.268-.55-.426-.868-.573a1.695 1.695 0 0 0-.654-.16c-.8-.032-2.096.024-2.948.132a1.477 1.477 0 0 1-.672-.05c-.136-.046-.283-.065-.41-.127a.577.577 0 0 0-.533-.002 2.87 2.87 0 0 1-1.136.248 8.18 8.18 0 0 0-.617.038c-.204.022-.41.046-.608.094-.3.073-.59.182-.903.192-.035.002-.093.03-.101.057-.064.206-.24.265-.41.343-.049.022-.085.087-.111.14-.138.274-.132.552-.029.837.146.399.423.702.707 1 .042.043.098.08.154.1.232.081.464.2.702.22.43.036.855.114 1.29.105.556-.013 1.112.01 1.667.028.639.022 1.278.034 1.913-.028.39-.038.78-.05 1.17-.044Zm-24.837.32c.66-.001 1.317.038 1.965.176a3.44 3.44 0 0 0 1.167.048c.082-.01.165-.026.246-.018.334.032.655.012.953-.168.068-.04.157-.048.238-.062.44-.072.773-.378 1.171-.541.053-.022.09-.084.136-.125l.278-.243c.222-.19.312-.425.253-.715a6.804 6.804 0 0 1-.082-.487c-.072-.57-.42-.918-.912-1.152a.396.396 0 0 0-.179-.04c-.431.017-.86-.042-1.294-.008-.51.04-1.03.054-1.53-.115a.71.71 0 0 0-.427.011.68.68 0 0 1-.365.023c-.283-.076-.572-.06-.86-.06-.33 0-.658-.006-.985-.064a2.498 2.498 0 0 0-.615-.027c-.349.025-.695.076-1.042.118a.458.458 0 0 0-.12.03c-.285.116-.57.234-.855.352-.133.156-.265.313-.4.469a3.788 3.788 0 0 1-.168.18.515.515 0 0 0-.15.33c-.033.419-.017.825.29 1.16.042.044.064.105.101.154.202.275.444.477.81.491.162.007.324.055.482.1.499.14 1.002.234 1.524.184.122-.011.247-.001.37-.001Zm14.511-41.825v.01c.33.012.659.025.988.032.102.003.205-.008.307-.016.067-.005.156-.098.164-.163.003-.02.008-.04.008-.061.02-.721.045-1.442.055-2.162a3.539 3.539 0 0 0-.056-.739 4.26 4.26 0 0 1-.052-1.107c.02-.328.045-.656.068-.985.003-.053-.081-.098-.132-.073-.224.11-.429.247-.575.456-.14.202-.285.402-.42.609-.123.189-.267.37-.323.595a.636.636 0 0 1-.331.423.635.635 0 0 0-.323.357c-.054.158-.172.278-.29.395a.855.855 0 0 1-.618.239.414.414 0 0 1-.425-.293c-.17-.485-.365-.962-.48-1.466-.055-.24-.138-.474-.214-.709-.12-.372-.25-.74-.37-1.113-.1-.314-.188-.631-.284-.946-.005-.017-.03-.043-.04-.041-.033.006-.079.015-.092.039-.309.54-.502 1.125-.64 1.729-.042.18-.073.364-.12.543a3.548 3.548 0 0 1-.135.41c-.204.514-.513.983-.668 1.52-.02.07-.099.133-.166.173a1.01 1.01 0 0 1-.285.112c-.26.06-.493.01-.67-.205-.288-.349-.567-.705-.9-1.016a1.209 1.209 0 0 1-.192-.24c-.255-.406-.627-.705-.943-1.055-.034-.038-.075-.044-.108-.01-.026.027-.061.065-.06.097.013.391.037.782.048 1.173.01.39.029.783-.055 1.17-.021.1-.025.204-.028.307-.013.37-.025.74-.032 1.112-.004.185 0 .37.01.555a.85.85 0 0 0 .059.239.274.274 0 0 0 .222.19c.081.01.165.01.246.006.229-.01.452.001.665.102a.476.476 0 0 0 .362.001c.239-.08.485-.094.733-.085.762.029 1.524.052 2.286.018.123-.006.248-.008.37.002.432.034.863.05 1.296.04.209-.005.41-.007.605-.083.177-.069.36-.086.546-.086h.989ZM8.901 35.67h-.016c0 .556-.006 1.112.002 1.669.006.455.094.9.22 1.338.05.178.129.35.158.532.046.294.186.543.318.8.092.179.25.288.43.322.322.061.65.107.982.076.318-.03.587-.179.86-.321a1.67 1.67 0 0 0 .594-.529c.169-.233.341-.465.529-.683.12-.14.262-.262.407-.376.198-.155.426-.247.682-.26.288-.013.576-.026.864-.045.47-.032 1.071.444 1.214.825.03.077.054.157.064.238.015.122.02.246.02.37.003.639.012 1.278 0 1.916-.005.314.084.316.308.345.061.008.124.01.185.013.906.034 1.812.07 2.717.1.123.004.247-.014.369-.033a9.042 9.042 0 0 1 2.34-.068c1.09.111 2.18.087 3.267-.06.346-.047.698-.052 1.048-.062.33-.01.66-.001.99-.005.102 0 .205-.012.307-.023.078-.008.163-.085.166-.157.02-.539.165-1.055.265-1.58.163-.853.666-1.447 1.382-1.876.371-.222.794-.334 1.23-.385a9.51 9.51 0 0 0 .732-.112c.444-.087.887-.185 1.33-.281.242-.053.474-.134.685-.27.416-.267.849-.51 1.247-.801.585-.427 1.123-.907 1.447-1.578.035-.074.087-.14.139-.204.211-.261.343-.558.414-.885.03-.14.065-.282.115-.417.319-.852.526-1.732.658-2.63.033-.227.052-.45-.019-.673a.975.975 0 0 1-.027-.489c.152-.776.092-1.56.089-2.342a.837.837 0 0 0-.028-.245c-.119-.377-.13-.771-.192-1.157a6.507 6.507 0 0 0-.182-.781c-.07-.237-.168-.465-.25-.697a1.892 1.892 0 0 0-.361-.643 2.854 2.854 0 0 1-.435-.673c-.296-.61-.748-1.076-1.286-1.47-.25-.183-.497-.367-.733-.567a6.496 6.496 0 0 0-1.332-.89 6.198 6.198 0 0 1-1.052-.645c-.31-.239-.638-.454-.958-.68-.286-.2-.576-.398-.859-.604a4.489 4.489 0 0 1-.965-.951 8.084 8.084 0 0 1-.88-1.485c-.111-.244-.209-.493-.316-.739-.242-.555-.173-.507-.767-.479a2.847 2.847 0 0 0-.429.053 1.793 1.793 0 0 1-.857-.023c-.058-.017-.121-.02-.182-.027-.02-.002-.041.003-.062.003-.043 0-.107.089-.095.135.18.687.497 1.309.918 1.874.405.545.835 1.072 1.264 1.6.142.175.31.33.47.49.51.514 1.103.928 1.688 1.35.4.289.808.57 1.225.835.77.487 1.493 1.028 2.108 1.705.222.244.437.494.657.739.333.37.592.792.845 1.216.074.123.138.256.18.393.192.63.38 1.262.559 1.896.124.44.137.894.156 1.347-.084.365-.042.737-.049 1.105-.007.374-.1.734-.147 1.1-.103.79-.392 1.514-.76 2.207-.184.344-.423.658-.626.993-.205.338-.493.606-.74.909a.658.658 0 0 1-.19.154c-.272.15-.55.295-.85.365-.838.196-1.67.206-2.494-.1a1.7 1.7 0 0 1-.895-.72c-.075-.122-.137-.253-.199-.383-.08-.167-.148-.34-.23-.506a5.227 5.227 0 0 1-.546-2.386c0-.165-.007-.33-.016-.494a.221.221 0 0 0-.19-.208c-.04-.004-.081-.01-.122-.012-.515-.02-1.03-.05-1.544-.059-.431-.007-.866-.031-1.28.147-.09.039-.202.03-.305.032-.906.017-1.812-.07-2.719-.012-.081.005-.164-.01-.246-.012-.186-.004-.371-.004-.556-.01-.206-.008-.413-.009-.616-.034a1.31 1.31 0 0 0-.55.034c-.324.097-.65.103-.97-.02a.883.883 0 0 0-.364-.047c-.366.017-.365.054-.488.363-.023.057-.048.114-.064.173-.13.461-.449.718-.896.846a1.957 1.957 0 0 1-.675.052c-.57-.037-1.029-.268-1.328-.776-.251-.426-.505-.85-.595-1.349a2.376 2.376 0 0 0-.102-.356 1.435 1.435 0 0 0-.355-.572c-.24-.23-.499-.432-.807-.563a6.017 6.017 0 0 0-1.48-.423 1.917 1.917 0 0 0-.431-.01c-.34.027-.638.138-.844.438a2.505 2.505 0 0 1-.327.368c-.121.118-.21.251-.271.408a2.17 2.17 0 0 1-.129.28c-.203.362-.33.754-.456 1.145-.152.474-.24.958-.218 1.46.014.329.014.659.017.988.003.392-.012.783.088 1.168.03.117.025.246.024.37-.004.555-.013 1.112-.02 1.668Zm14.55 8.092-.146.1c-.286.205-.56.416-.726.741a.8.8 0 0 1-.355.338 2.204 2.204 0 0 0-.626.494.922.922 0 0 1-.246.185.876.876 0 0 0-.393.38c-.187.37-.61.483-.858.788-.063.077-.16.128-.246.184a.804.804 0 0 1-.169.075 1.75 1.75 0 0 0-.535.303 1.417 1.417 0 0 1-.318.187c-.226.103-.44.218-.632.38-.21.178-.468.273-.737.293-.437.031-.74-.087-.794-.566-.023-.204-.05-.409-.065-.614a7.37 7.37 0 0 1-.017-.618 2.598 2.598 0 0 0-.19-1.027 2.932 2.932 0 0 1-.203-.963c-.013-.267-.037-.534-.057-.801-.017-.221-.074-.268-.315-.284a3.114 3.114 0 0 0-1.16.138c-.158.05-.312.1-.48.11-.352.02-.69.115-1.022.228-.254.086-.51.164-.784.15a.996.996 0 0 0-.42.087c-.115.045-.23.1-.35.123-.358.066-.647.246-.91.492a3.644 3.644 0 0 1-1.194.756 2.06 2.06 0 0 0-.844.609c-.44.519-.873 1.043-1.296 1.575-.231.29-.437.6-.652.902-.06.083-.124.167-.163.26-.202.5-.47.962-.751 1.42-.043.07-.077.145-.11.22-.25.566-.503 1.13-.743 1.699a14.775 14.775 0 0 1-.864 1.776c-.083.142-.147.295-.214.446-.062.139-.024.219.134.286.094.04.192.072.286.114.189.083.383.157.56.26.202.118.408.19.643.18a.856.856 0 0 1 .574.193c.096.075.204.157.318.18.23.044.426.146.623.26.124.072.248.05.337-.047.278-.305.547-.614.743-.984.24-.456.49-.906.757-1.347.308-.512.637-1.012.96-1.515.234-.366.497-.712.836-.986.194-.157.368-.327.52-.525a1.64 1.64 0 0 1 .522-.426c.399-.222.817-.38 1.258-.5a3.27 3.27 0 0 1 1.04-.091c.19.009.358.079.521.175.274.162.46.404.645.655.152.204.262.42.303.667.082.493.111.983-.098 1.46-.057.13-.083.275-.13.411-.041.116-.077.24-.144.34-.138.208-.23.436-.336.66a1.9 1.9 0 0 1-.253.42c-.204.243-.34.513-.42.817-.051.2-.118.393-.242.563-.147.203-.221.442-.307.673-.135.368-.256.74-.402 1.104-.26.649-.503 1.305-.836 1.926-.163.305-.248.652-.366.98-.016.042.062.123.115.121.185-.008.371-.01.555-.03.245-.028.49-.071.734-.107.224-.032.5.159.554.387.019.08.035.161.035.242-.002.363-.004.367.345.381.412.016.824.023 1.236.037.206.007.418-.006.616.037.469.102.942.103 1.415.116.35.01.7.026 1.051.031.268.004.539.018.803-.014.37-.045.74-.052 1.11-.058.227-.004.455-.01.678-.046a7.269 7.269 0 0 1 1.232-.09c.948 0 1.897.005 2.845-.001.867-.006 1.728.111 2.595.088.123-.004.246.022.37.036.307.037.614.047.924.016a3.171 3.171 0 0 1 1.107.06c.163.042.326.06.49.024.329-.072.654-.045.981.014.162.03.33.058.491.044.45-.038.898-.116 1.353-.086.029.002.08-.041.089-.073.027-.098.02-.207.058-.3.083-.203.054-.397.014-.604-.082-.425-.194-.843-.289-1.265-.144-.642-.248-1.294-.47-1.918a2.464 2.464 0 0 1-.102-.483c-.063-.448-.114-.898-.276-1.327-.036-.094-.033-.203-.047-.305-.113-.774-.192-1.555-.445-2.302-.026-.077-.03-.162-.046-.243-.043-.222-.066-.45-.134-.665-.179-.565-.155-1.14-.125-1.717.018-.356.154-.684.318-.994a.878.878 0 0 1 .804-.488c.123-.002.248.02.37.012.445-.025.8.163 1.112.454.121.112.254.216.355.344.423.533.842 1.067 1.16 1.675.257.492.549.966.827 1.448a.88.88 0 0 0 .107.151c.32.358.552.773.745 1.205.188.419.467.776.711 1.157a.445.445 0 0 0 .296.21c.179-.046.335-.14.491-.243.41-.273.827-.538 1.25-.791.14-.084.307-.117.459-.181.075-.032.14-.086.212-.125.127-.069.253-.139.384-.198.224-.102.454-.193.678-.297.048-.023.08-.082.124-.13l-.104-.232c-.216-.49-.465-.964-.624-1.48a4.456 4.456 0 0 0-.324-.799 24.5 24.5 0 0 1-.395-.768c-.182-.368-.418-.709-.554-1.101-.026-.075-.092-.136-.143-.2a3.023 3.023 0 0 1-.476-.862 3.605 3.605 0 0 0-.386-.773 1.932 1.932 0 0 1-.288-.613c-.051-.225-.161-.42-.266-.62-.19-.368-.385-.728-.704-1.003-.131-.218-.329-.365-.535-.505a10.272 10.272 0 0 1-.456-.319 5.272 5.272 0 0 0-1.637-.849 2.155 2.155 0 0 0-.665-.113 3.65 3.65 0 0 1-.86-.075c-.183-.041-.373-.055-.55.011-.281.105-.57.101-.856.075-.392-.035-.782-.027-1.174-.023-.514.006-1.03.035-1.539-.091-.118-.03-.246-.025-.37-.027-.25-.004-.49.054-.723.143-.031.012-.07.062-.07.094.001.185 0 .372.024.554.07.535.063 1.07.02 1.604-.015.185-.017.37-.027.556-.018.35-.027.7-.063 1.049-.023.224-.081.445-.134.665a.34.34 0 0 1-.191.23c-.428.201-.882.099-1.162-.266-.1-.13-.206-.262-.28-.407-.097-.189-.24-.335-.377-.487-.207-.229-.467-.405-.635-.673a.49.49 0 0 0-.194-.147 1.259 1.259 0 0 1-.516-.519c-.185-.322-.487-.56-.645-.902a.122.122 0 0 0-.04-.047c-.29-.202-.489-.497-.743-.735-.014-.013-.038-.014-.063-.023Zm2.72-35.532c-.04.36-.03.712-.006 1.06.042.617.107 1.232.153 1.849.03.41.041.823.067 1.234.014.227.037.452.064.677.017.146.103.206.263.177.408-.072.82-.08 1.233-.092.391-.013.782-.019 1.17-.091.309-.058.617-.012.922.045.078.015.153.059.224.098.236.13.32.35.27.627-.034.183-.128.285-.305.346a1.184 1.184 0 0 1-.481.084c-.165-.012-.33-.032-.494-.022-.38.024-.488.032-.311.474.2.502.47.963.77 1.407a4.06 4.06 0 0 0 1.035 1.054c.472.332.951.654 1.417.995.467.342.95.651 1.47.908.427.21.797.512 1.176.796.264.197.51.42.784.603.4.269.714.62 1.023.98.174.203.328.421.439.67.1.226.234.432.394.625.225.271.386.58.504.915.172.486.369.964.46 1.473.107.587.157 1.183.292 1.766.023.098.01.205.01.308.005.949.004 1.898.013 2.846.004.457-.084.902-.154 1.35-.124.795-.35 1.566-.613 2.326a3.25 3.25 0 0 0-.097.356 2.897 2.897 0 0 1-.545 1.162c-.162.21-.286.45-.431.675-.056.086-.112.176-.185.246-.506.485-.997.987-1.619 1.331-.126.07-.248.148-.364.234-.678.504-1.452.763-2.275.903-.08.014-.166.012-.244.036-.473.15-.962.224-1.452.288-.316.04-.61.133-.834.364-.272.28-.544.563-.616.976-.053.304-.13.604-.196.905a.715.715 0 0 0 .09.535c.028.048.084.101.135.111.446.083.892.166 1.35.15.267-.009.535-.01.803-.014.31-.005.618-.01.925.05.204.041.405.034.61-.032.257-.083.527-.08.797-.055.328.029.657.054.986.076a3.6 3.6 0 0 1 .845.17 6.058 6.058 0 0 1 1.913.986c.163.126.336.238.505.357.27.189.542.377.721.666a.624.624 0 0 0 .128.134c.22.194.389.42.495.699.059.152.162.287.236.434.075.146.162.292.202.448.066.265.187.499.32.733.132.232.251.473.35.721.116.29.256.562.468.794.126.14.218.298.261.485.02.08.043.164.09.23.301.42.439.93.728 1.358.09.135.154.291.212.445.121.327.216.665.35.988.14.342.312.672.472 1.006.054.111.123.216.172.328.04.094.062.195.086.274.1.12.227.134.344.167a3.54 3.54 0 0 1 1.587.916c.144.145.308.273.467.404.333.274.53.64.622 1.045a9.18 9.18 0 0 1 .25 2.084 3.746 3.746 0 0 1-.11.856 1.297 1.297 0 0 1-.196.448c-.288.401-.56.815-.898 1.18-.428.462-.913.829-1.526 1.007-.256.074-.508.168-.78.178-.123.004-.245.038-.366.062-.623.123-1.23.056-1.827-.145-.374-.126-.727-.275-1.029-.545-.182-.163-.406-.281-.62-.405-.334-.195-.578-.453-.686-.837-.044-.155-.14-.297-.21-.444-.054-.111-.127-.218-.155-.335-.105-.44-.243-.874-.23-1.334.007-.227-.006-.454.002-.68.008-.224-.09-.398-.231-.554-.041-.046-.092-.083-.137-.126-.059-.057-.13-.107-.172-.175-.248-.404-.567-.76-.759-1.2-.19-.436-.419-.85-.737-1.21a1.229 1.229 0 0 1-.143-.202c-.278-.482-.57-.956-.825-1.45-.286-.554-.66-1.044-1.046-1.527-.102-.128-.234-.231-.353-.346-.112-.107-.253-.132-.4-.13-.09.002-.153.05-.196.127a1.17 1.17 0 0 0-.131.535 3.3 3.3 0 0 0 .08.92c.126.52.256 1.04.365 1.564.096.464.173.932.241 1.4.048.327.1.65.193.968.08.275.108.566.16.85.033.181.04.372.103.543.187.506.266 1.038.395 1.557.08.32.154.64.221.963.094.444.179.89.267 1.334.032.161.061.323.094.485a1.31 1.31 0 0 1-.005.551.705.705 0 0 1-.349.484c-.377.22-.765.404-1.218.39-.077-.003-.156.028-.247.046.011.122.008.226.032.324.089.36.187.717.235 1.087.015.12.057.241.105.354.162.38.29.77.373 1.175.036.173.163.244.307.258.244.024.489.024.736-.01.448-.062.896-.139 1.35-.142a38.42 38.42 0 0 1 1.176.006c.143.003.287.031.427.065a4.16 4.16 0 0 1 1.598.779c.386.3.628.709.814 1.148.104.245.183.506.234.767.12.611.022 1.188-.33 1.712a.64.64 0 0 1-.275.241 4.898 4.898 0 0 0-.7.388c-.186.12-.412.183-.625.256-.234.08-.477.132-.708.216a1.647 1.647 0 0 1-.605.106c-.247-.004-.495 0-.742-.006a12.17 12.17 0 0 0-1.729.077c-.496.059-.99.04-1.481-.004-.536-.047-1.07-.041-1.606-.05-.288-.005-.577-.034-.865-.022-.51.022-.972-.157-1.439-.316a1.468 1.468 0 0 1-.532-.309c-.762-.707-1.202-1.561-1.17-2.622.004-.142.04-.284.072-.424.032-.14.081-.276.115-.415a.341.341 0 0 0-.05-.294c-.197-.273-.28-.585-.358-.91-.148-.621-.25-1.253-.44-1.864-.093-.295-.175-.592-.29-.88-.09-.23-.142-.473-.21-.71a.21.21 0 0 0-.17-.16 4.618 4.618 0 0 0-.92-.104c-1.071.005-2.144.003-3.216.003a5.23 5.23 0 0 0-.8.063c-.286.043-.575.054-.863.08-.145.013-.22.07-.251.225a5 5 0 0 1-.405 1.23.758.758 0 0 0-.056.176c-.13.586-.369 1.135-.578 1.694-.036.096-.078.19-.113.287-.108.297-.257.56-.552.712-.012.006-.012.033-.02.06.067.12.143.241.208.37.064.128.144.257.17.395.085.445.16.892.214 1.341.021.18-.018.37-.04.553-.024.216-.119.394-.325.492a.52.52 0 0 0-.28.31c-.102.288-.322.47-.585.608-.218.115-.434.234-.655.344-.147.073-.3.138-.453.197-.287.11-.585.192-.867.32-.174.079-.36.085-.547.075a4.52 4.52 0 0 0-.923.044c-.2.03-.412.007-.615-.017-.286-.035-.568-.1-.854-.14-.203-.029-.41-.039-.615-.053a17.05 17.05 0 0 0-.679-.037 3.754 3.754 0 0 0-.492.009c-.29.03-.572.022-.86-.034-.364-.07-.731-.116-1.084-.242-.13-.047-.284-.039-.427-.045-.236-.01-.433-.106-.627-.234-.48-.318-.777-.788-1.079-1.254a1.183 1.183 0 0 1-.167-.526 7.646 7.646 0 0 1-.024-1.297c.017-.258.116-.478.28-.673.2-.236.4-.471.598-.708a1.02 1.02 0 0 1 .446-.322c.35-.123.7-.24 1.035-.403a.942.942 0 0 1 .298-.075c.676-.078 1.349-.19 2.033-.096.203.029.412.023.617.022.186 0 .25-.07.262-.265.01-.185.024-.37.025-.556a3.34 3.34 0 0 1 .17-.971c.157-.512.31-1.025.464-1.537.016-.052-.04-.125-.097-.132-.061-.007-.123-.015-.184-.02-.267-.022-.535-.037-.801-.067a1.106 1.106 0 0 0-.488.03c-.187.062-.367.02-.536-.071-.09-.05-.182-.098-.268-.155a.57.57 0 0 1-.25-.408c-.003-.02-.01-.042-.007-.061.054-.411-.02-.82-.019-1.23a1.12 1.12 0 0 1 .18-.644 1.15 1.15 0 0 0 .142-.274c.17-.51.428-.98.65-1.466.29-.637.523-1.3.77-1.954.167-.444.295-.9.564-1.301.066-.099.082-.23.12-.348a2.68 2.68 0 0 1 .478-.928 1.75 1.75 0 0 0 .223-.366c.107-.223.21-.447.335-.661.166-.287.234-.616.313-.934.045-.18 0-.37-.11-.532-.034-.05-.073-.1-.105-.152-.155-.265-.397-.353-.685-.316-.454.06-.883.202-1.267.458-.083.056-.145.145-.215.219-.142.149-.264.324-.427.442-.309.224-.54.508-.743.82-.36.553-.715 1.109-1.058 1.672-.214.352-.403.72-.601 1.08-.21.381-.441.745-.743 1.061-.083.088-.145.196-.214.29.035.117.054.218.094.31.148.343.243.696.298 1.066.037.246.068.488.072.736.014.97-.35 1.806-.899 2.578a1.032 1.032 0 0 1-.376.31c-.382.203-.75.433-1.135.626-.614.309-1.251.526-1.96.437-.551-.07-1.108-.11-1.64-.29a8.453 8.453 0 0 1-.692-.262c-.267-.117-.486-.298-.695-.505-.372-.367-.645-.802-.922-1.236a1.553 1.553 0 0 1-.192-.452 4.667 4.667 0 0 1-.144-.79c-.052-.701-.025-1.4.134-2.09.024-.1.062-.198.073-.3.068-.631.48-1.033.943-1.39a3.164 3.164 0 0 1 1.097-.554c.078-.022.151-.062.229-.095.025-.06.056-.115.069-.173.104-.468.308-.895.545-1.307.3-.518.554-1.058.789-1.607.251-.588.505-1.174.767-1.756.092-.206.202-.407.323-.598a5.3 5.3 0 0 0 .455-.876c.083-.212.198-.406.337-.588.187-.245.358-.504.546-.748.49-.638.991-1.267 1.534-1.86a2.723 2.723 0 0 1 1.055-.738c.352-.132.657-.34.942-.582.094-.08.19-.159.281-.241a2.34 2.34 0 0 1 .978-.51c.198-.053.399-.103.59-.174.196-.073.393-.131.601-.132.252-.001.49-.057.726-.138.332-.115.67-.202 1.022-.23.142-.011.283-.053.422-.09.198-.052.394-.113.603-.174.01-.054.033-.112.033-.17.001-.164-.01-.329-.009-.493.006-.536.016-1.071.023-1.607 0-.062-.008-.123-.015-.185-.022-.215-.145-.328-.37-.326-.782.009-.634-.006-1.097.516-.109.123-.193.267-.29.4-.22.306-.49.553-.826.729-.384.2-.757.427-1.19.507-.77.142-1.517.105-2.217-.298-.165-.095-.309-.21-.396-.378-.19-.364-.41-.711-.485-1.13-.053-.303-.164-.596-.244-.894a6.925 6.925 0 0 1-.234-1.897c.013-.845.024-1.69.04-2.535.006-.31.001-.618-.057-.924a2.638 2.638 0 0 1-.044-.43c-.012-.536-.015-1.072-.028-1.608-.02-.795.16-1.552.407-2.3.15-.454.386-.865.571-1.3.06-.141.882-1.097 1.003-1.165.621-.353 1.265-.574 2.005-.463a7.598 7.598 0 0 1 1.603.446c.487.188.907.487 1.286.842.278.26.44.594.574.942.051.134.082.277.112.418.087.411.29.768.518 1.113.11.167.262.257.466.25.062-.001.124 0 .186-.004a.278.278 0 0 0 .238-.17c.178-.363.247-.749.155-1.14-.114-.491-.1-.982-.074-1.477.01-.206.017-.412.017-.618 0-.391 0-.78.054-1.172.064-.47.018-.946 0-1.42-.015-.37-.017-.742-.021-1.113-.008-.593.493-.96.974-1.016a.594.594 0 0 1 .297.063c.23.105.43.267.524.503.137.337.386.586.634.825.21.202.394.418.565.65.196.266.404.521.704.704.04-.038.098-.068.121-.116.093-.184.182-.37.257-.561.068-.172.14-.347.168-.528.098-.615.29-1.201.536-1.77.163-.378.3-.765.446-1.15a1.01 1.01 0 0 1 .995-.678.59.59 0 0 1 .474.258c.203.282.397.572.446.938.112.842.387 1.64.68 2.434.121.328.212.666.323.997.008.024.073.048.103.04a.354.354 0 0 0 .159-.086c.04-.042.058-.107.084-.163.228-.489.581-.898.879-1.341.1-.15.255-.27.404-.379.17-.125.31-.27.414-.452.103-.182.24-.336.395-.472.106-.094.228-.182.36-.232.189-.072.389-.138.594-.018.263.152.47.352.5.664.03.307.036.618.019.926-.017.307-.024.615-.071.923-.053.344-.042.699-.048 1.049-.005.25.068.49.16.72.095.24.129.478.04.72a1.36 1.36 0 0 0-.064.487c.001.33-.021.659-.043.988-.024.368 0 .74.008 1.11.01.557.03 1.113.032 1.67.001.44.076.863.243 1.266.149.361.32.714.487 1.068.112.236.296.377.554.451.382.11.763.173 1.16.115.142-.02.287-.029.43-.044.278-.03.502-.145.692-.36a8.078 8.078 0 0 0 1.663-2.935c.025-.078.047-.158.058-.239.068-.488.193-.97.135-1.47-.016-.14.005-.291.037-.43.119-.5.034-.987-.092-1.466a27.677 27.677 0 0 0-.448-1.479c-.05-.154-.135-.298-.215-.441-.304-.545-.715-1.009-1.127-1.47a8.956 8.956 0 0 0-2.084-1.733c-.55-.328-1.062-.71-1.578-1.087-.15-.11-.3-.218-.448-.33-.706-.54-1.374-1.118-1.9-1.845-.266-.367-.566-.709-.847-1.064-.558-.704-.938-1.5-1.203-2.353-.037-.119-.07-.238-.108-.355-.105-.327-.19-.385-.544-.352-.102.009-.202.037-.304.051-.081.012-.164.03-.245.024-.462-.031-.637-.217-.594-.739a.378.378 0 0 1 .21-.291c.126-.066.264-.124.403-.146a5.72 5.72 0 0 1 1.295-.052c.205.014.411.02.617.02.15.002.241-.087.233-.221-.049-.782-.084-1.565-.155-2.345a22.096 22.096 0 0 1-.102-1.666 6.5 6.5 0 0 0-.01-.31c-.01-.146-.084-.226-.222-.25a89.895 89.895 0 0 1-.73-.13c-.394-.073-.733-.255-1.052-.493-.547-.409-.914-.948-1.156-1.573a7.322 7.322 0 0 1-.508-2.533 48.824 48.824 0 0 1 .017-2.165c.017-.618.037-.544.45-.958.12-.12.268-.19.435-.217.325-.051.648-.108.981-.106.431.002.86-.016 1.289-.11.32-.07.655-.055.985-.031.226.016.454.026.679.008a7.793 7.793 0 0 1 1.359.008c.123.012.247.02.37.015.23-.01.386.125.537.266a.343.343 0 0 1 .084.16c.264.987.345 1.464.363 2.557.015.921-.16 1.806-.41 2.678a3.742 3.742 0 0 1-.595 1.213c-.316.425-.728.724-1.176.983-.124.072-.262.12-.39.185-.072.037-.134.09-.2.137Z"/>
  <path fill="#000" d="M22.124 58.851c-.04-.343.125-.598.384-.79.18-.135.378-.256.584-.343.46-.194.867-.043 1.122.367.267.426.276.898.105 1.366a.48.48 0 0 1-.192.232c-.47.274-.963.337-1.476.12-.337-.144-.513-.399-.527-.765-.002-.061 0-.123 0-.187Zm.1-7.826c.022-.141.032-.286.068-.423a.79.79 0 0 1 .7-.602c.102-.01.205-.008.308-.006.104.003.2.032.288.091.137.09.272.186.416.264.326.174.445.464.478.808a1.3 1.3 0 0 1-.13.656.614.614 0 0 1-.155.187c-.204.185-.462.259-.72.325a.453.453 0 0 1-.183-.002 1.352 1.352 0 0 1-.79-.44c-.22-.243-.292-.536-.28-.858Zm-.06-3.902V47a.569.569 0 0 1 .3-.506c.233-.129.482-.226.724-.335.259-.117.48-.04.682.133.03.026.068.05.086.084.126.234.27.46.365.707a.944.944 0 0 1-.162.983c-.182.223-.431.312-.699.347-.563.073-1.233-.343-1.29-1.043-.008-.082-.002-.165-.002-.247h-.004Zm2.246 7.855c-.022.497-.06.766-.692.986-.651.226-1.463-.24-1.463-1.044 0-.123 0-.248.02-.369.057-.333.24-.566.573-.656a.743.743 0 0 1 .302-.026c.182.03.364.074.539.134.134.046.26.121.383.194.21.126.31.322.325.564.006.082.01.164.013.217Zm-.265-19.14c-.007.364-.052.638-.231.886-.276.382-.666.535-1.106.584-.619.068-1.116-.2-1.55-.61a.673.673 0 0 1-.205-.373 6.878 6.878 0 0 1-.088-.732c-.026-.421.205-.721.553-.884.405-.19.84-.328 1.304-.304.21.01.403.066.577.187.05.035.102.067.152.104.41.301.624.698.594 1.142Z"/>
</svg>
